# MagicaVoxel @ Ephtracy

# group
o 

# material
mtllib player4.mtl
usemtl palette

# normals
vn -1 0 0
vn 1 0 0
vn 0 0 1
vn 0 0 -1
vn 0 -1 0
vn 0 1 0

# texcoords
vt 0.275391 0.5
vt 0.544922 0.5
vt 0.560547 0.5
vt 0.564453 0.5
vt 0.568359 0.5
vt 0.572266 0.5
vt 0.576172 0.5
vt 0.986328 0.5
vt 0.994141 0.5

# verts
v -0.4 0.2 0.1
v -0.4 0.2 -0.1
v -0.4 0.3 0.1
v -0.4 0.3 -0.1
v -0.3 0.3 0.1
v -0.3 0.3 0
v -0.3 0.3 -0.1
v -0.3 0.4 0.1
v -0.3 0.4 0
v -0.3 0.4 -0.1
v -0.3 0.7 0.3
v -0.3 0.7 0.2
v -0.3 0.7 0.1
v -0.3 0.7 -0.3
v -0.3 0.8 0.3
v -0.3 0.8 0.2
v -0.3 0.8 0.1
v -0.3 0.8 -0.3
v -0.2 0 0.1
v -0.2 0 -0.1
v -0.2 0.2 0.1
v -0.2 0.2 -0.1
v -0.2 0.3 0.1
v -0.2 0.3 0
v -0.2 0.3 -0.1
v -0.2 0.4 0.1
v -0.2 0.4 0
v -0.2 0.4 -0.1
v -0.2 0.5 0.2
v -0.2 0.5 0.1
v -0.2 0.5 0
v -0.2 0.5 -0.1
v -0.2 0.5 -0.2
v -0.2 0.6 0.2
v -0.2 0.6 0.1
v -0.2 0.7 0.2
v -0.2 0.7 0.1
v -0.2 0.7 -0.2
v -0.2 0.8 0.2
v -0.2 0.8 0.1
v -0.2 0.8 -0.1
v -0.2 0.8 -0.2
v -0.2 0.9 0.2
v -0.2 0.9 0.1
v -0.2 0.9 -0.1
v -0.2 0.9 -0.2
v -0.2 1 0.2
v -0.2 1 -0.2
v 0.1 0 0.1
v 0.1 0 -0.1
v 0.1 0.2 0.1
v 0.1 0.2 0
v 0.1 0.2 -0.1
v 0.1 0.5 0.1
v 0.1 0.5 0
v 0.1 0.5 -0.1
v 0.1 0.7 0.1
v 0.1 0.7 -0.1
v 0.1 0.8 0.1
v 0.1 0.8 0
v 0.1 0.8 -0.1
v 0.1 0.9 0.1
v 0.1 0.9 0
v 0.1 0.9 -0.1
v 0.2 0.7 0.2
v 0.2 0.7 0.1
v 0.2 0.7 -0.2
v 0.2 0.8 0.2
v 0.2 0.8 0
v 0.2 0.8 -0.1
v 0.2 0.8 -0.2
v 0.3 0.2 0.1
v 0.3 0.2 -0.1
v 0.3 0.3 0.1
v 0.3 0.3 0
v 0.3 0.3 -0.1
v -0.3 0.2 0.1
v -0.3 0.2 -0.1
v -0.3 0.3 0.1
v -0.3 0.3 0
v -0.3 0.3 -0.1
v -0.2 0.7 0.2
v -0.2 0.7 0.1
v -0.2 0.7 -0.2
v -0.2 0.8 0.2
v -0.2 0.8 0.1
v -0.2 0.8 -0.1
v -0.2 0.8 -0.2
v -0.1 0 0.1
v -0.1 0 -0.1
v -0.1 0.2 0.1
v -0.1 0.2 -0.1
v -0.1 0.5 0.1
v -0.1 0.5 0
v -0.1 0.5 -0.1
v -0.1 0.7 0.1
v -0.1 0.7 -0.1
v -0.1 0.8 0.1
v -0.1 0.8 -0.1
v -0.1 0.9 0.1
v -0.1 0.9 -0.1
v 0.2 0 0.1
v 0.2 0 -0.1
v 0.2 0.2 0.1
v 0.2 0.2 0
v 0.2 0.2 -0.1
v 0.2 0.3 0.1
v 0.2 0.3 0
v 0.2 0.3 -0.1
v 0.2 0.4 0.1
v 0.2 0.4 0
v 0.2 0.4 -0.1
v 0.2 0.5 0.2
v 0.2 0.5 0.1
v 0.2 0.5 0
v 0.2 0.5 -0.1
v 0.2 0.5 -0.2
v 0.2 0.6 0.2
v 0.2 0.6 0.1
v 0.2 0.7 0.2
v 0.2 0.7 0.1
v 0.2 0.7 -0.2
v 0.2 0.8 0.2
v 0.2 0.8 0
v 0.2 0.8 -0.1
v 0.2 0.8 -0.2
v 0.2 0.9 0.2
v 0.2 0.9 0
v 0.2 0.9 -0.1
v 0.2 0.9 -0.2
v 0.2 1 0.2
v 0.2 1 -0.2
v 0.3 0.3 0.1
v 0.3 0.3 0
v 0.3 0.3 -0.1
v 0.3 0.4 0.1
v 0.3 0.4 0
v 0.3 0.4 -0.1
v 0.3 0.7 0.3
v 0.3 0.7 -0.3
v 0.3 0.8 0.3
v 0.3 0.8 -0.3
v 0.4 0.2 0.1
v 0.4 0.2 -0.1
v 0.4 0.3 0.1
v 0.4 0.3 -0.1
v -0.3 0.7 0.3
v -0.3 0.8 0.3
v 0.3 0.7 0.3
v 0.3 0.8 0.3
v -0.2 0.5 0.2
v -0.2 0.6 0.2
v -0.2 0.7 0.2
v -0.2 0.8 0.2
v -0.2 0.9 0.2
v -0.2 1 0.2
v -0.1 0.6 0.2
v -0.1 0.7 0.2
v 0 0.9 0.2
v 0 1 0.2
v 0.1 0.6 0.2
v 0.1 0.7 0.2
v 0.1 0.9 0.2
v 0.1 1 0.2
v 0.2 0.5 0.2
v 0.2 0.6 0.2
v 0.2 0.7 0.2
v 0.2 0.8 0.2
v 0.2 0.9 0.2
v 0.2 1 0.2
v -0.4 0.2 0.1
v -0.4 0.3 0.1
v -0.3 0.2 0.1
v -0.3 0.3 0.1
v -0.3 0.4 0.1
v -0.2 0 0.1
v -0.2 0.2 0.1
v -0.2 0.3 0.1
v -0.2 0.4 0.1
v -0.2 0.5 0.1
v -0.1 0 0.1
v -0.1 0.2 0.1
v -0.1 0.3 0.1
v -0.1 0.4 0.1
v -0.1 0.5 0.1
v 0 0.2 0.1
v 0 0.3 0.1
v 0 0.4 0.1
v 0 0.5 0.1
v 0.1 0 0.1
v 0.1 0.2 0.1
v 0.1 0.3 0.1
v 0.1 0.4 0.1
v 0.1 0.5 0.1
v 0.2 0 0.1
v 0.2 0.2 0.1
v 0.2 0.3 0.1
v 0.2 0.4 0.1
v 0.2 0.5 0.1
v 0.3 0.2 0.1
v 0.3 0.3 0.1
v 0.3 0.4 0.1
v 0.4 0.2 0.1
v 0.4 0.3 0.1
v -0.1 0.5 -0.1
v -0.1 0.7 -0.1
v -0.1 0.8 -0.1
v -0.1 0.9 -0.1
v 0.1 0.5 -0.1
v 0.1 0.7 -0.1
v 0.1 0.8 -0.1
v 0.1 0.9 -0.1
v -0.2 0.7 -0.2
v -0.2 0.8 -0.2
v -0.1 0.8 -0.2
v 0.1 0.8 -0.2
v 0.2 0.7 -0.2
v 0.2 0.8 -0.2
v -0.2 0.7 0.2
v -0.2 0.8 0.2
v -0.1 0.7 0.2
v 0.1 0.7 0.2
v 0.2 0.7 0.2
v 0.2 0.8 0.2
v -0.1 0.5 0.1
v -0.1 0.7 0.1
v -0.1 0.8 0.1
v -0.1 0.9 0.1
v 0 0.5 0.1
v 0.1 0.5 0.1
v 0.1 0.7 0.1
v 0.1 0.8 0.1
v 0.1 0.9 0.1
v -0.4 0.2 -0.1
v -0.4 0.3 -0.1
v -0.3 0.2 -0.1
v -0.3 0.3 -0.1
v -0.3 0.4 -0.1
v -0.2 0 -0.1
v -0.2 0.2 -0.1
v -0.2 0.3 -0.1
v -0.2 0.4 -0.1
v -0.2 0.5 -0.1
v -0.1 0 -0.1
v -0.1 0.2 -0.1
v -0.1 0.4 -0.1
v -0.1 0.5 -0.1
v 0.1 0 -0.1
v 0.1 0.2 -0.1
v 0.1 0.3 -0.1
v 0.1 0.4 -0.1
v 0.1 0.5 -0.1
v 0.2 0 -0.1
v 0.2 0.2 -0.1
v 0.2 0.3 -0.1
v 0.2 0.4 -0.1
v 0.2 0.5 -0.1
v 0.3 0.2 -0.1
v 0.3 0.3 -0.1
v 0.3 0.4 -0.1
v 0.4 0.2 -0.1
v 0.4 0.3 -0.1
v -0.2 0.5 -0.2
v -0.2 0.7 -0.2
v -0.2 0.8 -0.2
v -0.2 0.9 -0.2
v -0.2 1 -0.2
v -0.1 0.8 -0.2
v -0.1 0.9 -0.2
v 0.1 0.8 -0.2
v 0.1 0.9 -0.2
v 0.2 0.5 -0.2
v 0.2 0.7 -0.2
v 0.2 0.8 -0.2
v 0.2 0.9 -0.2
v 0.2 1 -0.2
v -0.3 0.7 -0.3
v -0.3 0.8 -0.3
v 0.3 0.7 -0.3
v 0.3 0.8 -0.3
v -0.2 0 0.1
v -0.1 0 0.1
v 0.1 0 0.1
v 0.2 0 0.1
v -0.2 0 -0.1
v -0.1 0 -0.1
v 0.1 0 -0.1
v 0.2 0 -0.1
v -0.4 0.2 0.1
v -0.3 0.2 0.1
v -0.1 0.2 0.1
v 0 0.2 0.1
v 0.1 0.2 0.1
v 0.3 0.2 0.1
v 0.4 0.2 0.1
v 0 0.2 0
v 0.1 0.2 0
v -0.4 0.2 -0.1
v -0.3 0.2 -0.1
v -0.1 0.2 -0.1
v 0.1 0.2 -0.1
v 0.3 0.2 -0.1
v 0.4 0.2 -0.1
v -0.3 0.3 0.1
v -0.2 0.3 0.1
v 0.2 0.3 0.1
v 0.3 0.3 0.1
v -0.3 0.3 0
v -0.2 0.3 0
v 0.2 0.3 0
v 0.3 0.3 0
v -0.3 0.3 -0.1
v -0.2 0.3 -0.1
v 0.2 0.3 -0.1
v 0.3 0.3 -0.1
v -0.2 0.5 0.2
v 0.2 0.5 0.2
v -0.2 0.5 0.1
v -0.1 0.5 0.1
v 0 0.5 0.1
v 0.1 0.5 0.1
v 0.2 0.5 0.1
v -0.2 0.5 -0.1
v -0.1 0.5 -0.1
v 0.1 0.5 -0.1
v 0.2 0.5 -0.1
v -0.2 0.5 -0.2
v 0.2 0.5 -0.2
v -0.3 0.7 0.3
v 0.3 0.7 0.3
v -0.3 0.7 0.2
v -0.2 0.7 0.2
v -0.1 0.7 0.2
v 0.1 0.7 0.2
v 0.2 0.7 0.2
v -0.3 0.7 0.1
v -0.2 0.7 0.1
v 0.2 0.7 0.1
v -0.2 0.7 -0.2
v 0.2 0.7 -0.2
v -0.3 0.7 -0.3
v 0.3 0.7 -0.3
v -0.2 0.8 0.2
v 0.2 0.8 0.2
v -0.2 0.8 0.1
v -0.1 0.8 0.1
v 0.1 0.8 0.1
v 0.1 0.8 0
v 0.2 0.8 0
v -0.2 0.8 -0.1
v -0.1 0.8 -0.1
v 0.1 0.8 -0.1
v 0.2 0.8 -0.1
v -0.2 0.8 -0.2
v -0.1 0.8 -0.2
v 0.1 0.8 -0.2
v 0.2 0.8 -0.2
v -0.1 0.9 0.1
v 0.1 0.9 0.1
v 0.1 0.9 0
v -0.1 0.9 -0.1
v 0.1 0.9 -0.1
v -0.4 0.3 0.1
v -0.3 0.3 0.1
v 0.3 0.3 0.1
v 0.4 0.3 0.1
v -0.3 0.3 0
v 0.3 0.3 0
v -0.4 0.3 -0.1
v -0.3 0.3 -0.1
v 0.3 0.3 -0.1
v 0.4 0.3 -0.1
v -0.3 0.4 0.1
v -0.2 0.4 0.1
v 0.2 0.4 0.1
v 0.3 0.4 0.1
v -0.3 0.4 0
v -0.2 0.4 0
v 0.2 0.4 0
v 0.3 0.4 0
v -0.3 0.4 -0.1
v -0.2 0.4 -0.1
v 0.2 0.4 -0.1
v 0.3 0.4 -0.1
v -0.1 0.5 0.1
v 0 0.5 0.1
v 0.1 0.5 0.1
v -0.1 0.5 0
v 0 0.5 0
v 0.1 0.5 0
v -0.1 0.5 -0.1
v 0.1 0.5 -0.1
v -0.2 0.7 0.2
v -0.1 0.7 0.2
v 0.1 0.7 0.2
v 0.2 0.7 0.2
v -0.2 0.7 0.1
v -0.1 0.7 0.1
v 0.1 0.7 0.1
v 0.2 0.7 0.1
v -0.1 0.7 -0.1
v 0.1 0.7 -0.1
v -0.2 0.7 -0.2
v 0.2 0.7 -0.2
v -0.3 0.8 0.3
v 0.3 0.8 0.3
v -0.3 0.8 0.2
v -0.2 0.8 0.2
v 0.2 0.8 0.2
v -0.3 0.8 0.1
v -0.2 0.8 0.1
v 0.2 0.8 0
v -0.2 0.8 -0.1
v 0.2 0.8 -0.1
v -0.2 0.8 -0.2
v -0.1 0.8 -0.2
v 0.1 0.8 -0.2
v 0.2 0.8 -0.2
v -0.3 0.8 -0.3
v 0.3 0.8 -0.3
v -0.2 1 0.2
v 0 1 0.2
v 0.1 1 0.2
v 0.2 1 0.2
v 0 1 0.1
v 0.1 1 0.1
v -0.2 1 -0.2
v 0.2 1 -0.2

# faces
f 3/1/1 2/1/1 1/1/1
f 4/1/1 2/1/1 3/1/1
f 8/6/1 6/6/1 5/6/1
f 9/5/1 7/5/1 6/5/1
f 9/6/1 6/6/1 8/6/1
f 10/5/1 7/5/1 9/5/1
f 15/5/1 12/5/1 11/5/1
f 16/6/1 13/6/1 12/6/1
f 16/5/1 12/5/1 15/5/1
f 17/5/1 14/5/1 13/5/1
f 17/6/1 13/6/1 16/6/1
f 18/5/1 14/5/1 17/5/1
f 21/6/1 20/6/1 19/6/1
f 22/6/1 20/6/1 21/6/1
f 23/9/1 22/9/1 21/9/1
f 24/9/1 22/9/1 23/9/1
f 25/9/1 22/9/1 24/9/1
f 30/5/1 27/5/1 26/5/1
f 31/4/1 28/4/1 27/4/1
f 31/5/1 27/5/1 30/5/1
f 32/4/1 28/4/1 31/4/1
f 34/1/1 32/1/1 31/1/1
f 34/1/1 33/1/1 32/1/1
f 34/1/1 31/1/1 30/1/1
f 34/1/1 30/1/1 29/1/1
f 35/1/1 33/1/1 34/1/1
f 36/9/1 35/9/1 34/9/1
f 37/1/1 33/1/1 35/1/1
f 37/9/1 35/9/1 36/9/1
f 38/1/1 33/1/1 37/1/1
f 43/3/1 40/3/1 39/3/1
f 44/2/1 41/2/1 40/2/1
f 44/3/1 40/3/1 43/3/1
f 45/3/1 42/3/1 41/3/1
f 45/2/1 41/2/1 44/2/1
f 46/3/1 42/3/1 45/3/1
f 47/5/1 44/5/1 43/5/1
f 47/5/1 45/5/1 44/5/1
f 47/5/1 46/5/1 45/5/1
f 48/5/1 46/5/1 47/5/1
f 51/6/1 50/6/1 49/6/1
f 52/6/1 50/6/1 51/6/1
f 53/6/1 50/6/1 52/6/1
f 57/1/1 55/1/1 54/1/1
f 57/1/1 56/1/1 55/1/1
f 58/1/1 56/1/1 57/1/1
f 62/3/1 60/3/1 59/3/1
f 63/2/1 61/2/1 60/2/1
f 63/3/1 60/3/1 62/3/1
f 64/2/1 61/2/1 63/2/1
f 68/5/1 66/5/1 65/5/1
f 68/5/1 67/5/1 66/5/1
f 69/5/1 67/5/1 68/5/1
f 70/5/1 67/5/1 69/5/1
f 71/5/1 67/5/1 70/5/1
f 74/1/1 73/1/1 72/1/1
f 75/1/1 73/1/1 74/1/1
f 76/1/1 73/1/1 75/1/1
f 77/1/2 78/1/2 79/1/2
f 79/1/2 78/1/2 80/1/2
f 80/1/2 78/1/2 81/1/2
f 82/6/2 83/6/2 85/6/2
f 83/5/2 84/5/2 86/5/2
f 85/6/2 83/6/2 86/6/2
f 86/5/2 84/5/2 87/5/2
f 87/5/2 84/5/2 88/5/2
f 89/6/2 90/6/2 91/6/2
f 91/6/2 90/6/2 92/6/2
f 93/1/2 94/1/2 96/1/2
f 94/1/2 95/1/2 96/1/2
f 96/1/2 95/1/2 97/1/2
f 98/2/2 99/2/2 100/2/2
f 100/2/2 99/2/2 101/2/2
f 102/6/2 103/6/2 104/6/2
f 104/6/2 103/6/2 105/6/2
f 105/6/2 103/6/2 106/6/2
f 104/9/2 105/9/2 107/9/2
f 105/1/2 106/1/2 108/1/2
f 107/9/2 105/9/2 108/9/2
f 108/1/2 106/1/2 109/1/2
f 110/5/2 111/5/2 114/5/2
f 111/6/2 112/6/2 115/6/2
f 114/5/2 111/5/2 115/5/2
f 115/6/2 112/6/2 116/6/2
f 115/1/2 116/1/2 118/1/2
f 116/1/2 117/1/2 118/1/2
f 114/1/2 115/1/2 118/1/2
f 113/1/2 114/1/2 118/1/2
f 118/1/2 117/1/2 119/1/2
f 118/9/2 119/9/2 120/9/2
f 119/1/2 117/1/2 121/1/2
f 120/9/2 119/9/2 121/9/2
f 121/1/2 117/1/2 122/1/2
f 123/3/2 124/3/2 127/3/2
f 124/2/2 125/2/2 128/2/2
f 127/3/2 124/3/2 128/3/2
f 125/3/2 126/3/2 129/3/2
f 128/2/2 125/2/2 129/2/2
f 129/3/2 126/3/2 130/3/2
f 127/5/2 128/5/2 131/5/2
f 128/5/2 129/5/2 131/5/2
f 129/5/2 130/5/2 131/5/2
f 131/5/2 130/5/2 132/5/2
f 133/5/2 134/5/2 136/5/2
f 134/6/2 135/6/2 137/6/2
f 136/5/2 134/5/2 137/5/2
f 137/6/2 135/6/2 138/6/2
f 139/5/2 140/5/2 141/5/2
f 141/5/2 140/5/2 142/5/2
f 143/1/2 144/1/2 145/1/2
f 145/1/2 144/1/2 146/1/2
f 149/5/3 148/5/3 147/5/3
f 150/5/3 148/5/3 149/5/3
f 157/1/3 152/1/3 151/1/3
f 157/9/3 153/9/3 152/9/3
f 158/9/3 153/9/3 157/9/3
f 159/5/3 156/5/3 155/5/3
f 159/3/3 155/3/3 154/3/3
f 160/5/3 156/5/3 159/5/3
f 161/1/3 158/1/3 157/1/3
f 161/1/3 157/1/3 151/1/3
f 162/1/3 158/1/3 161/1/3
f 163/6/3 160/6/3 159/6/3
f 163/3/3 159/3/3 154/3/3
f 164/6/3 160/6/3 163/6/3
f 165/1/3 161/1/3 151/1/3
f 166/9/3 162/9/3 161/9/3
f 166/1/3 161/1/3 165/1/3
f 167/9/3 162/9/3 166/9/3
f 168/3/3 163/3/3 154/3/3
f 169/5/3 164/5/3 163/5/3
f 169/3/3 163/3/3 168/3/3
f 170/5/3 164/5/3 169/5/3
f 173/1/3 172/1/3 171/1/3
f 174/1/3 172/1/3 173/1/3
f 178/6/3 175/6/3 174/6/3
f 179/6/3 175/6/3 178/6/3
f 181/6/3 177/6/3 176/6/3
f 182/9/3 178/9/3 177/9/3
f 182/6/3 177/6/3 181/6/3
f 183/5/3 180/5/3 179/5/3
f 183/9/3 178/9/3 182/9/3
f 183/5/3 179/5/3 178/5/3
f 184/5/3 180/5/3 183/5/3
f 185/5/3 180/5/3 184/5/3
f 186/9/3 183/9/3 182/9/3
f 187/7/3 184/7/3 183/7/3
f 187/9/3 183/9/3 186/9/3
f 188/2/3 185/2/3 184/2/3
f 188/7/3 184/7/3 187/7/3
f 189/2/3 185/2/3 188/2/3
f 191/8/3 187/8/3 186/8/3
f 192/2/3 188/2/3 187/2/3
f 192/8/3 187/8/3 191/8/3
f 193/7/3 189/7/3 188/7/3
f 193/2/3 188/2/3 192/2/3
f 194/7/3 189/7/3 193/7/3
f 195/6/3 191/6/3 190/6/3
f 196/9/3 192/9/3 191/9/3
f 196/6/3 191/6/3 195/6/3
f 197/5/3 193/5/3 192/5/3
f 197/9/3 192/9/3 196/9/3
f 197/5/3 194/5/3 193/5/3
f 198/5/3 194/5/3 197/5/3
f 199/5/3 194/5/3 198/5/3
f 201/5/3 198/5/3 197/5/3
f 202/5/3 198/5/3 201/5/3
f 203/1/3 201/1/3 200/1/3
f 204/1/3 201/1/3 203/1/3
f 209/1/3 206/1/3 205/1/3
f 210/1/3 206/1/3 209/1/3
f 211/2/3 208/2/3 207/2/3
f 212/2/3 208/2/3 211/2/3
f 215/5/3 214/5/3 213/5/3
f 216/5/3 215/5/3 213/5/3
f 217/5/3 216/5/3 213/5/3
f 218/5/3 216/5/3 217/5/3
f 219/5/4 220/5/4 221/5/4
f 221/5/4 220/5/4 222/5/4
f 222/5/4 220/5/4 223/5/4
f 223/5/4 220/5/4 224/5/4
f 225/1/4 226/1/4 229/1/4
f 229/1/4 226/1/4 230/1/4
f 230/1/4 226/1/4 231/1/4
f 227/3/4 228/3/4 232/3/4
f 232/3/4 228/3/4 233/3/4
f 234/1/4 235/1/4 236/1/4
f 236/1/4 235/1/4 237/1/4
f 237/5/4 238/5/4 241/5/4
f 241/5/4 238/5/4 242/5/4
f 239/6/4 240/6/4 244/6/4
f 240/9/4 241/9/4 245/9/4
f 244/6/4 240/6/4 245/6/4
f 242/4/4 243/4/4 246/4/4
f 241/5/4 242/5/4 246/5/4
f 246/4/4 243/4/4 247/4/4
f 245/9/4 241/9/4 249/9/4
f 246/5/4 247/5/4 250/5/4
f 241/5/4 246/5/4 250/5/4
f 249/9/4 241/9/4 250/9/4
f 250/5/4 247/5/4 251/5/4
f 251/5/4 247/5/4 252/5/4
f 248/6/4 249/6/4 253/6/4
f 249/1/4 250/1/4 254/1/4
f 253/6/4 249/6/4 254/6/4
f 250/5/4 251/5/4 255/5/4
f 254/1/4 250/1/4 255/1/4
f 251/6/4 252/6/4 256/6/4
f 255/5/4 251/5/4 256/5/4
f 256/6/4 252/6/4 257/6/4
f 255/6/4 256/6/4 259/6/4
f 259/6/4 256/6/4 260/6/4
f 258/1/4 259/1/4 261/1/4
f 261/1/4 259/1/4 262/1/4
f 265/3/4 266/3/4 268/3/4
f 266/5/4 267/5/4 269/5/4
f 268/3/4 266/3/4 269/3/4
f 268/2/4 269/2/4 270/2/4
f 269/5/4 267/5/4 271/5/4
f 270/2/4 269/2/4 271/2/4
f 263/1/4 264/1/4 272/1/4
f 272/1/4 264/1/4 273/1/4
f 270/3/4 271/3/4 274/3/4
f 271/5/4 267/5/4 275/5/4
f 274/3/4 271/3/4 275/3/4
f 275/5/4 267/5/4 276/5/4
f 277/5/4 278/5/4 279/5/4
f 279/5/4 278/5/4 280/5/4
f 285/6/5 282/6/5 281/6/5
f 286/6/5 282/6/5 285/6/5
f 287/6/5 284/6/5 283/6/5
f 288/6/5 284/6/5 287/6/5
f 296/9/5 292/9/5 291/9/5
f 296/8/5 293/8/5 292/8/5
f 297/8/5 293/8/5 296/8/5
f 298/1/5 290/1/5 289/1/5
f 299/1/5 290/1/5 298/1/5
f 300/9/5 296/9/5 291/9/5
f 300/9/5 297/9/5 296/9/5
f 301/9/5 297/9/5 300/9/5
f 302/1/5 295/1/5 294/1/5
f 303/1/5 295/1/5 302/1/5
f 308/6/5 305/6/5 304/6/5
f 309/6/5 305/6/5 308/6/5
f 310/5/5 307/5/5 306/5/5
f 311/5/5 307/5/5 310/5/5
f 312/5/5 309/5/5 308/5/5
f 313/5/5 309/5/5 312/5/5
f 314/6/5 311/6/5 310/6/5
f 315/6/5 311/6/5 314/6/5
f 318/1/5 317/1/5 316/1/5
f 319/1/5 317/1/5 318/1/5
f 320/1/5 317/1/5 319/1/5
f 321/1/5 317/1/5 320/1/5
f 322/1/5 317/1/5 321/1/5
f 327/1/5 324/1/5 323/1/5
f 327/1/5 326/1/5 325/1/5
f 327/1/5 325/1/5 324/1/5
f 328/1/5 326/1/5 327/1/5
f 331/5/5 330/5/5 329/5/5
f 332/5/5 330/5/5 331/5/5
f 333/5/5 330/5/5 332/5/5
f 334/5/5 330/5/5 333/5/5
f 335/5/5 330/5/5 334/5/5
f 336/6/5 332/6/5 331/6/5
f 337/6/5 332/6/5 336/6/5
f 338/5/5 330/5/5 335/5/5
f 339/5/5 337/5/5 336/5/5
f 340/5/5 330/5/5 338/5/5
f 341/5/5 339/5/5 336/5/5
f 341/5/5 340/5/5 339/5/5
f 342/5/5 330/5/5 340/5/5
f 342/5/5 340/5/5 341/5/5
f 345/3/5 344/3/5 343/3/5
f 346/3/5 344/3/5 345/3/5
f 347/3/5 344/3/5 346/3/5
f 348/3/5 344/3/5 347/3/5
f 349/3/5 344/3/5 348/3/5
f 350/2/5 346/2/5 345/2/5
f 351/2/5 346/2/5 350/2/5
f 352/2/5 349/2/5 348/2/5
f 353/2/5 349/2/5 352/2/5
f 354/3/5 351/3/5 350/3/5
f 355/2/5 352/2/5 351/2/5
f 355/3/5 351/3/5 354/3/5
f 356/3/5 353/3/5 352/3/5
f 356/2/5 352/2/5 355/2/5
f 357/3/5 353/3/5 356/3/5
f 360/5/5 359/5/5 358/5/5
f 361/5/5 360/5/5 358/5/5
f 362/5/5 360/5/5 361/5/5
f 363/1/6 364/1/6 367/1/6
f 365/1/6 366/1/6 368/1/6
f 363/1/6 367/1/6 369/1/6
f 369/1/6 367/1/6 370/1/6
f 368/1/6 366/1/6 371/1/6
f 371/1/6 366/1/6 372/1/6
f 373/6/6 374/6/6 377/6/6
f 377/6/6 374/6/6 378/6/6
f 375/5/6 376/5/6 379/5/6
f 379/5/6 376/5/6 380/5/6
f 377/5/6 378/5/6 381/5/6
f 381/5/6 378/5/6 382/5/6
f 379/6/6 380/6/6 383/6/6
f 383/6/6 380/6/6 384/6/6
f 385/2/6 386/2/6 388/2/6
f 386/7/6 387/7/6 389/7/6
f 388/2/6 386/2/6 389/2/6
f 389/7/6 387/7/6 390/7/6
f 388/5/6 389/5/6 391/5/6
f 389/5/6 390/5/6 391/5/6
f 391/5/6 390/5/6 392/5/6
f 393/9/6 394/9/6 397/9/6
f 394/1/6 395/1/6 398/1/6
f 397/9/6 394/9/6 398/9/6
f 395/9/6 396/9/6 399/9/6
f 398/1/6 395/1/6 399/1/6
f 399/9/6 396/9/6 400/9/6
f 397/1/6 398/1/6 401/1/6
f 399/1/6 400/1/6 402/1/6
f 397/1/6 401/1/6 403/1/6
f 401/1/6 402/1/6 403/1/6
f 402/1/6 400/1/6 404/1/6
f 403/1/6 402/1/6 404/1/6
f 405/5/6 406/5/6 407/5/6
f 407/5/6 406/5/6 408/5/6
f 408/5/6 406/5/6 409/5/6
f 407/6/6 408/6/6 410/6/6
f 410/6/6 408/6/6 411/6/6
f 409/5/6 406/5/6 412/5/6
f 410/5/6 411/5/6 413/5/6
f 412/5/6 406/5/6 414/5/6
f 410/5/6 413/5/6 415/5/6
f 414/5/6 406/5/6 418/5/6
f 416/5/6 417/5/6 419/5/6
f 417/5/6 418/5/6 419/5/6
f 410/5/6 415/5/6 419/5/6
f 415/5/6 416/5/6 419/5/6
f 418/5/6 406/5/6 420/5/6
f 419/5/6 418/5/6 420/5/6
f 421/5/6 422/5/6 425/5/6
f 422/6/6 423/6/6 425/6/6
f 423/5/6 424/5/6 426/5/6
f 425/6/6 423/6/6 426/6/6
f 421/5/6 425/5/6 427/5/6
f 425/5/6 426/5/6 427/5/6
f 426/5/6 424/5/6 428/5/6
f 427/5/6 426/5/6 428/5/6
