# MagicaVoxel @ Ephtracy

# group
o 

# material
mtllib gold_ore.mtl
usemtl palette

# normals
vn -1 0 0
vn 1 0 0
vn 0 0 1
vn 0 0 -1
vn 0 -1 0
vn 0 1 0

# texcoords
vt 0.373047 0.5
vt 0.986328 0.5

# verts
v -0.2 0 0.2
v -0.2 0 -0.2
v -0.2 0.3 0.1
v -0.2 0.3 0
v -0.2 0.3 -0.1
v -0.2 0.3 -0.2
v -0.2 0.4 0.2
v -0.2 0.4 0.1
v -0.2 0.4 0
v -0.2 0.4 -0.1
v -0.1 0.3 -0.1
v -0.1 0.3 -0.2
v -0.1 0.4 -0.1
v -0.1 0.4 -0.2
v 0 0.3 -0.1
v 0 0.3 -0.2
v 0 0.4 -0.1
v 0 0.4 -0.2
v 0.1 0.1 -0.1
v 0.1 0.1 -0.2
v 0.1 0.3 0.2
v 0.1 0.3 0.1
v 0.1 0.3 -0.1
v 0.1 0.3 -0.2
v 0.1 0.4 0.2
v 0.1 0.4 -0.1
v 0.2 0 0.2
v 0.2 0 -0.1
v 0.2 0 -0.2
v 0.2 0.1 -0.1
v 0.2 0.1 -0.2
v 0.2 0.2 0.2
v 0.2 0.2 0.1
v 0.2 0.3 0.2
v 0.2 0.3 0.1
v 0.2 0.3 -0.1
v -0.2 0 0.2
v -0.2 0.4 0.2
v 0.1 0.2 0.2
v 0.1 0.3 0.2
v 0.1 0.4 0.2
v 0.2 0 0.2
v 0.2 0.2 0.2
v 0.2 0.3 0.2
v -0.2 0.3 -0.1
v -0.2 0.4 -0.1
v -0.1 0.3 -0.1
v -0.1 0.4 -0.1
v 0 0.3 -0.1
v 0 0.4 -0.1
v 0.1 0.1 -0.1
v 0.1 0.3 -0.1
v 0.1 0.4 -0.1
v 0.2 0.1 -0.1
v 0.2 0.3 -0.1
v -0.2 0 -0.2
v -0.2 0.3 -0.2
v -0.1 0.3 -0.2
v -0.1 0.4 -0.2
v 0 0.3 -0.2
v 0 0.4 -0.2
v 0.1 0 -0.2
v 0.1 0.1 -0.2
v 0.1 0.3 -0.2
v 0.2 0 -0.2
v 0.2 0.1 -0.2
v -0.2 0 0.2
v 0.2 0 0.2
v 0.1 0 -0.1
v 0.2 0 -0.1
v -0.2 0 -0.2
v 0.1 0 -0.2
v 0.2 0 -0.2
v 0.1 0.1 -0.1
v 0.2 0.1 -0.1
v 0.1 0.1 -0.2
v 0.2 0.1 -0.2
v 0.1 0.3 0.2
v 0.2 0.3 0.2
v 0.1 0.3 0.1
v 0.2 0.3 0.1
v -0.2 0.3 -0.1
v -0.1 0.3 -0.1
v 0 0.3 -0.1
v 0.1 0.3 -0.1
v 0.2 0.3 -0.1
v -0.2 0.3 -0.2
v -0.1 0.3 -0.2
v 0 0.3 -0.2
v 0.1 0.3 -0.2
v -0.2 0.4 0.2
v 0.1 0.4 0.2
v -0.2 0.4 0.1
v -0.1 0.4 0.1
v -0.2 0.4 0
v -0.1 0.4 0
v -0.2 0.4 -0.1
v -0.1 0.4 -0.1
v 0 0.4 -0.1
v 0.1 0.4 -0.1
v -0.1 0.4 -0.2
v 0 0.4 -0.2

# faces
f 3/2/1 2/2/1 1/2/1
f 4/2/1 2/2/1 3/2/1
f 5/2/1 2/2/1 4/2/1
f 6/2/1 2/2/1 5/2/1
f 7/2/1 3/2/1 1/2/1
f 8/1/1 4/1/1 3/1/1
f 8/2/1 3/2/1 7/2/1
f 9/2/1 5/2/1 4/2/1
f 9/1/1 4/1/1 8/1/1
f 10/2/1 5/2/1 9/2/1
f 13/1/1 12/1/1 11/1/1
f 14/1/1 12/1/1 13/1/1
f 15/1/2 16/1/2 17/1/2
f 17/1/2 16/1/2 18/1/2
f 19/2/2 20/2/2 23/2/2
f 23/2/2 20/2/2 24/2/2
f 21/2/2 22/2/2 25/2/2
f 22/2/2 23/2/2 25/2/2
f 25/2/2 23/2/2 26/2/2
f 27/2/2 28/2/2 30/2/2
f 28/1/2 29/1/2 30/1/2
f 30/1/2 29/1/2 31/1/2
f 27/2/2 30/2/2 32/2/2
f 32/2/2 30/2/2 33/2/2
f 32/1/2 33/1/2 34/1/2
f 33/2/2 30/2/2 35/2/2
f 34/1/2 33/1/2 35/1/2
f 35/2/2 30/2/2 36/2/2
f 39/2/3 38/2/3 37/2/3
f 40/2/3 38/2/3 39/2/3
f 41/2/3 38/2/3 40/2/3
f 42/2/3 39/2/3 37/2/3
f 43/1/3 40/1/3 39/1/3
f 43/2/3 39/2/3 42/2/3
f 44/1/3 40/1/3 43/1/3
f 45/2/4 46/2/4 47/2/4
f 47/2/4 46/2/4 48/2/4
f 49/2/4 50/2/4 52/2/4
f 52/2/4 50/2/4 53/2/4
f 51/2/4 52/2/4 54/2/4
f 54/2/4 52/2/4 55/2/4
f 56/2/4 57/2/4 58/2/4
f 56/2/4 58/2/4 60/2/4
f 58/1/4 59/1/4 60/1/4
f 60/1/4 59/1/4 61/1/4
f 56/2/4 60/2/4 62/2/4
f 62/2/4 60/2/4 63/2/4
f 63/2/4 60/2/4 64/2/4
f 62/1/4 63/1/4 65/1/4
f 65/1/4 63/1/4 66/1/4
f 69/2/5 68/2/5 67/2/5
f 70/2/5 68/2/5 69/2/5
f 71/2/5 69/2/5 67/2/5
f 72/1/5 70/1/5 69/1/5
f 72/2/5 69/2/5 71/2/5
f 73/1/5 70/1/5 72/1/5
f 74/1/6 75/1/6 76/1/6
f 76/1/6 75/1/6 77/1/6
f 78/1/6 79/1/6 80/1/6
f 80/1/6 79/1/6 81/1/6
f 80/2/6 81/2/6 85/2/6
f 85/2/6 81/2/6 86/2/6
f 82/2/6 83/2/6 87/2/6
f 87/2/6 83/2/6 88/2/6
f 84/2/6 85/2/6 89/2/6
f 89/2/6 85/2/6 90/2/6
f 91/2/6 92/2/6 93/2/6
f 93/2/6 92/2/6 94/2/6
f 93/1/6 94/1/6 95/1/6
f 94/2/6 92/2/6 96/2/6
f 95/1/6 94/1/6 96/1/6
f 95/2/6 96/2/6 97/2/6
f 96/2/6 92/2/6 98/2/6
f 97/2/6 96/2/6 98/2/6
f 98/2/6 92/2/6 99/2/6
f 99/2/6 92/2/6 100/2/6
f 98/1/6 99/1/6 101/1/6
f 101/1/6 99/1/6 102/1/6
