# MagicaVoxel @ Ephtracy

# group
o 

# material
mtllib player3.mtl
usemtl palette

# normals
vn -1 0 0
vn 1 0 0
vn 0 0 1
vn 0 0 -1
vn 0 -1 0
vn 0 1 0

# texcoords
vt 0.173828 0.5
vt 0.189453 0.5
vt 0.208984 0.5
vt 0.287109 0.5
vt 0.314453 0.5
vt 0.345703 0.5
vt 0.349609 0.5
vt 0.373047 0.5
vt 0.380859 0.5
vt 0.427734 0.5
vt 0.986328 0.5
vt 0.994141 0.5

# verts
v -0.4 0.2 0.1
v -0.4 0.2 -0.1
v -0.4 0.3 0.1
v -0.4 0.3 -0.1
v -0.3 0.3 0.1
v -0.3 0.3 0
v -0.3 0.3 -0.1
v -0.3 0.4 0.1
v -0.3 0.4 0
v -0.3 0.4 -0.1
v -0.3 0.7 0.3
v -0.3 0.7 0.1
v -0.3 0.7 -0.2
v -0.3 0.7 -0.3
v -0.3 0.8 0.3
v -0.3 0.8 0.1
v -0.3 0.8 -0.2
v -0.3 0.8 -0.3
v -0.2 0 0.1
v -0.2 0 0
v -0.2 0 -0.1
v -0.2 0.1 0.1
v -0.2 0.1 0
v -0.2 0.1 -0.1
v -0.2 0.2 0.1
v -0.2 0.2 0
v -0.2 0.2 -0.1
v -0.2 0.3 0.1
v -0.2 0.3 0
v -0.2 0.3 -0.1
v -0.2 0.4 0.1
v -0.2 0.4 0
v -0.2 0.4 -0.1
v -0.2 0.5 0.2
v -0.2 0.5 0.1
v -0.2 0.5 -0.1
v -0.2 0.5 -0.2
v -0.2 0.6 0.2
v -0.2 0.6 0.1
v -0.2 0.7 0.2
v -0.2 0.7 0.1
v -0.2 0.7 -0.2
v -0.2 0.8 0.2
v -0.2 0.8 0.1
v -0.2 0.8 -0.2
v -0.2 0.9 0.2
v -0.2 0.9 0.1
v -0.2 0.9 -0.2
v -0.2 1 0.2
v -0.2 1 -0.2
v 0.1 0 0.1
v 0.1 0 -0.1
v 0.1 0.1 0.1
v 0.1 0.1 -0.1
v 0.1 0.2 0.1
v 0.1 0.2 0
v 0.1 0.2 -0.1
v 0.1 0.5 0.1
v 0.1 0.5 0
v 0.1 0.5 -0.1
v 0.1 0.7 0.1
v 0.1 0.7 -0.1
v 0.1 0.8 0.1
v 0.1 0.8 -0.1
v 0.1 0.9 0.1
v 0.1 0.9 0
v 0.1 0.9 -0.1
v 0.2 0.7 0.2
v 0.2 0.7 0.1
v 0.2 0.7 0
v 0.2 0.7 -0.2
v 0.2 0.8 0.2
v 0.2 0.8 0.1
v 0.2 0.8 0
v 0.2 0.8 -0.1
v 0.2 0.8 -0.2
v 0.3 0.2 0.1
v 0.3 0.2 -0.1
v 0.3 0.3 0.1
v 0.3 0.3 0
v 0.3 0.3 -0.1
v -0.3 0.2 0.1
v -0.3 0.2 -0.1
v -0.3 0.3 0.1
v -0.3 0.3 0
v -0.3 0.3 -0.1
v -0.2 0.7 0.2
v -0.2 0.7 0.1
v -0.2 0.7 -0.2
v -0.2 0.8 0.2
v -0.2 0.8 0.1
v -0.2 0.8 -0.2
v -0.1 0 0.1
v -0.1 0 0
v -0.1 0 -0.1
v -0.1 0.1 0.1
v -0.1 0.1 0
v -0.1 0.1 -0.1
v -0.1 0.2 0.1
v -0.1 0.2 0
v -0.1 0.2 -0.1
v -0.1 0.5 0.1
v -0.1 0.5 0
v -0.1 0.5 -0.1
v -0.1 0.7 0.1
v -0.1 0.7 -0.1
v -0.1 0.8 0.1
v -0.1 0.8 -0.1
v -0.1 0.9 0.1
v -0.1 0.9 -0.1
v 0.2 0 0.1
v 0.2 0 -0.1
v 0.2 0.1 0.1
v 0.2 0.1 -0.1
v 0.2 0.2 0.1
v 0.2 0.2 -0.1
v 0.2 0.3 0.1
v 0.2 0.3 0
v 0.2 0.3 -0.1
v 0.2 0.4 0.1
v 0.2 0.4 0
v 0.2 0.4 -0.1
v 0.2 0.5 0.2
v 0.2 0.5 0.1
v 0.2 0.5 -0.1
v 0.2 0.5 -0.2
v 0.2 0.6 0.2
v 0.2 0.6 0.1
v 0.2 0.7 0.2
v 0.2 0.7 0.1
v 0.2 0.7 0
v 0.2 0.7 -0.2
v 0.2 0.8 0.2
v 0.2 0.8 0.1
v 0.2 0.8 0
v 0.2 0.8 -0.1
v 0.2 0.8 -0.2
v 0.2 0.9 0.2
v 0.2 0.9 0.1
v 0.2 0.9 -0.1
v 0.2 0.9 -0.2
v 0.2 1 0.2
v 0.2 1 -0.2
v 0.3 0.3 0.1
v 0.3 0.3 0
v 0.3 0.3 -0.1
v 0.3 0.4 0.1
v 0.3 0.4 0
v 0.3 0.4 -0.1
v 0.3 0.7 0.3
v 0.3 0.7 0
v 0.3 0.7 -0.2
v 0.3 0.7 -0.3
v 0.3 0.8 0.3
v 0.3 0.8 0
v 0.3 0.8 -0.2
v 0.3 0.8 -0.3
v 0.4 0.2 0.1
v 0.4 0.2 -0.1
v 0.4 0.3 0.1
v 0.4 0.3 -0.1
v -0.3 0.7 0.3
v -0.3 0.8 0.3
v 0.1 0.7 0.3
v 0.1 0.8 0.3
v 0.2 0.7 0.3
v 0.2 0.8 0.3
v 0.3 0.7 0.3
v 0.3 0.8 0.3
v -0.2 0.5 0.2
v -0.2 0.6 0.2
v -0.2 0.7 0.2
v -0.2 0.8 0.2
v -0.2 0.9 0.2
v -0.2 1 0.2
v -0.1 0.6 0.2
v -0.1 0.7 0.2
v -0.1 0.9 0.2
v -0.1 1 0.2
v 0 0.8 0.2
v 0 0.9 0.2
v 0 1 0.2
v 0.1 0.6 0.2
v 0.1 0.7 0.2
v 0.1 0.8 0.2
v 0.2 0.5 0.2
v 0.2 0.6 0.2
v 0.2 0.7 0.2
v 0.2 0.8 0.2
v 0.2 0.9 0.2
v 0.2 1 0.2
v -0.4 0.2 0.1
v -0.4 0.3 0.1
v -0.3 0.2 0.1
v -0.3 0.3 0.1
v -0.3 0.4 0.1
v -0.2 0 0.1
v -0.2 0.1 0.1
v -0.2 0.2 0.1
v -0.2 0.3 0.1
v -0.2 0.4 0.1
v -0.2 0.5 0.1
v -0.1 0 0.1
v -0.1 0.1 0.1
v -0.1 0.2 0.1
v -0.1 0.3 0.1
v -0.1 0.4 0.1
v -0.1 0.5 0.1
v 0 0.2 0.1
v 0 0.3 0.1
v 0 0.4 0.1
v 0 0.5 0.1
v 0.1 0 0.1
v 0.1 0.1 0.1
v 0.1 0.2 0.1
v 0.1 0.3 0.1
v 0.1 0.4 0.1
v 0.1 0.5 0.1
v 0.2 0 0.1
v 0.2 0.1 0.1
v 0.2 0.2 0.1
v 0.2 0.3 0.1
v 0.2 0.4 0.1
v 0.2 0.5 0.1
v 0.3 0.2 0.1
v 0.3 0.3 0.1
v 0.3 0.4 0.1
v 0.4 0.2 0.1
v 0.4 0.3 0.1
v -0.1 0.5 -0.1
v -0.1 0.7 -0.1
v -0.1 0.8 -0.1
v -0.1 0.9 -0.1
v 0 0.8 -0.1
v 0 0.9 -0.1
v 0.1 0.5 -0.1
v 0.1 0.7 -0.1
v 0.1 0.8 -0.1
v 0.1 0.9 -0.1
v -0.2 0.7 -0.2
v -0.2 0.8 -0.2
v 0 0.8 -0.2
v 0.1 0.8 -0.2
v 0.2 0.7 -0.2
v 0.2 0.8 -0.2
v -0.2 0.7 0.2
v -0.2 0.8 0.2
v -0.1 0.7 0.2
v 0 0.8 0.2
v 0.1 0.7 0.2
v 0.1 0.8 0.2
v 0.2 0.7 0.2
v 0.2 0.8 0.2
v -0.1 0.5 0.1
v -0.1 0.7 0.1
v -0.1 0.8 0.1
v -0.1 0.9 0.1
v 0 0.5 0.1
v 0 0.8 0.1
v 0 0.9 0.1
v 0.1 0.5 0.1
v 0.1 0.7 0.1
v 0.1 0.8 0.1
v 0.1 0.9 0.1
v -0.4 0.2 -0.1
v -0.4 0.3 -0.1
v -0.3 0.2 -0.1
v -0.3 0.3 -0.1
v -0.3 0.4 -0.1
v -0.2 0 -0.1
v -0.2 0.1 -0.1
v -0.2 0.2 -0.1
v -0.2 0.3 -0.1
v -0.2 0.4 -0.1
v -0.2 0.5 -0.1
v -0.1 0 -0.1
v -0.1 0.1 -0.1
v -0.1 0.2 -0.1
v 0.1 0 -0.1
v 0.1 0.1 -0.1
v 0.1 0.2 -0.1
v 0.1 0.3 -0.1
v 0.1 0.4 -0.1
v 0.2 0 -0.1
v 0.2 0.1 -0.1
v 0.2 0.2 -0.1
v 0.2 0.3 -0.1
v 0.2 0.4 -0.1
v 0.2 0.5 -0.1
v 0.3 0.2 -0.1
v 0.3 0.3 -0.1
v 0.3 0.4 -0.1
v 0.4 0.2 -0.1
v 0.4 0.3 -0.1
v -0.2 0.5 -0.2
v -0.2 0.7 -0.2
v -0.2 0.8 -0.2
v -0.2 0.9 -0.2
v -0.2 1 -0.2
v 0 0.8 -0.2
v 0 0.9 -0.2
v 0.1 0.8 -0.2
v 0.1 0.9 -0.2
v 0.2 0.5 -0.2
v 0.2 0.7 -0.2
v 0.2 0.8 -0.2
v 0.2 0.9 -0.2
v 0.2 1 -0.2
v -0.3 0.7 -0.3
v -0.3 0.8 -0.3
v 0.3 0.7 -0.3
v 0.3 0.8 -0.3
v -0.2 0 0.1
v -0.1 0 0.1
v 0.1 0 0.1
v 0.2 0 0.1
v -0.2 0 0
v -0.1 0 0
v -0.2 0 -0.1
v -0.1 0 -0.1
v 0.1 0 -0.1
v 0.2 0 -0.1
v -0.4 0.2 0.1
v -0.3 0.2 0.1
v -0.1 0.2 0.1
v 0 0.2 0.1
v 0.1 0.2 0.1
v 0.3 0.2 0.1
v 0.4 0.2 0.1
v -0.1 0.2 0
v 0 0.2 0
v 0.1 0.2 0
v -0.4 0.2 -0.1
v -0.3 0.2 -0.1
v -0.1 0.2 -0.1
v 0.1 0.2 -0.1
v 0.3 0.2 -0.1
v 0.4 0.2 -0.1
v -0.3 0.3 0.1
v -0.2 0.3 0.1
v 0.2 0.3 0.1
v 0.3 0.3 0.1
v -0.3 0.3 0
v -0.2 0.3 0
v 0.2 0.3 0
v 0.3 0.3 0
v -0.3 0.3 -0.1
v -0.2 0.3 -0.1
v 0.2 0.3 -0.1
v 0.3 0.3 -0.1
v -0.2 0.5 0.2
v 0.2 0.5 0.2
v -0.2 0.5 0.1
v -0.1 0.5 0.1
v 0 0.5 0.1
v 0.1 0.5 0.1
v 0.2 0.5 0.1
v -0.2 0.5 -0.1
v 0.2 0.5 -0.1
v -0.2 0.5 -0.2
v 0.2 0.5 -0.2
v -0.3 0.7 0.3
v 0.1 0.7 0.3
v 0.2 0.7 0.3
v 0.3 0.7 0.3
v -0.2 0.7 0.2
v -0.1 0.7 0.2
v 0.1 0.7 0.2
v 0.2 0.7 0.2
v -0.3 0.7 0.1
v -0.2 0.7 0.1
v 0.2 0.7 0.1
v 0.2 0.7 0
v 0.3 0.7 0
v -0.3 0.7 -0.2
v -0.2 0.7 -0.2
v 0.2 0.7 -0.2
v 0.3 0.7 -0.2
v -0.3 0.7 -0.3
v 0.3 0.7 -0.3
v -0.2 0.8 0.2
v 0 0.8 0.2
v 0.1 0.8 0.2
v 0.2 0.8 0.2
v -0.2 0.8 0.1
v -0.1 0.8 0.1
v 0 0.8 0.1
v 0.1 0.8 0.1
v 0.2 0.8 0.1
v 0.2 0.8 0
v -0.1 0.8 -0.1
v 0 0.8 -0.1
v 0.1 0.8 -0.1
v 0.2 0.8 -0.1
v -0.2 0.8 -0.2
v 0 0.8 -0.2
v 0.1 0.8 -0.2
v 0.2 0.8 -0.2
v -0.1 0.9 0.1
v 0 0.9 0.1
v 0.1 0.9 0.1
v 0 0.9 0
v 0.1 0.9 0
v -0.1 0.9 -0.1
v 0 0.9 -0.1
v 0.1 0.9 -0.1
v -0.4 0.3 0.1
v -0.3 0.3 0.1
v 0.3 0.3 0.1
v 0.4 0.3 0.1
v -0.3 0.3 0
v 0.3 0.3 0
v -0.4 0.3 -0.1
v -0.3 0.3 -0.1
v 0.3 0.3 -0.1
v 0.4 0.3 -0.1
v -0.3 0.4 0.1
v -0.2 0.4 0.1
v 0.2 0.4 0.1
v 0.3 0.4 0.1
v -0.3 0.4 0
v -0.2 0.4 0
v 0.2 0.4 0
v 0.3 0.4 0
v -0.3 0.4 -0.1
v -0.2 0.4 -0.1
v 0.2 0.4 -0.1
v 0.3 0.4 -0.1
v -0.1 0.5 0.1
v 0 0.5 0.1
v 0.1 0.5 0.1
v -0.1 0.5 0
v 0 0.5 0
v 0.1 0.5 0
v -0.1 0.5 -0.1
v 0.1 0.5 -0.1
v -0.2 0.7 0.2
v -0.1 0.7 0.2
v 0.1 0.7 0.2
v 0.2 0.7 0.2
v -0.2 0.7 0.1
v -0.1 0.7 0.1
v 0.1 0.7 0.1
v 0.2 0.7 0.1
v 0.2 0.7 0
v -0.1 0.7 -0.1
v 0.1 0.7 -0.1
v -0.2 0.7 -0.2
v 0.2 0.7 -0.2
v -0.3 0.8 0.3
v 0.1 0.8 0.3
v 0.2 0.8 0.3
v 0.3 0.8 0.3
v -0.2 0.8 0.2
v 0 0.8 0.2
v 0.1 0.8 0.2
v 0.2 0.8 0.2
v -0.3 0.8 0.1
v -0.2 0.8 0.1
v 0.2 0.8 0.1
v 0.2 0.8 0
v 0.3 0.8 0
v 0.2 0.8 -0.1
v -0.3 0.8 -0.2
v -0.2 0.8 -0.2
v 0 0.8 -0.2
v 0.1 0.8 -0.2
v 0.2 0.8 -0.2
v 0.3 0.8 -0.2
v -0.3 0.8 -0.3
v 0.3 0.8 -0.3
v -0.2 1 0.2
v -0.1 1 0.2
v 0 1 0.2
v 0.2 1 0.2
v -0.1 1 0.1
v 0 1 0.1
v 0 1 0
v 0.1 1 0
v 0 1 -0.1
v 0.1 1 -0.1
v -0.2 1 -0.2
v 0.2 1 -0.2

# faces
f 3/2/1 2/2/1 1/2/1
f 4/2/1 2/2/1 3/2/1
f 8/9/1 6/9/1 5/9/1
f 9/8/1 7/8/1 6/8/1
f 9/9/1 6/9/1 8/9/1
f 10/8/1 7/8/1 9/8/1
f 15/8/1 12/8/1 11/8/1
f 16/10/1 13/10/1 12/10/1
f 16/8/1 12/8/1 15/8/1
f 17/8/1 14/8/1 13/8/1
f 17/10/1 13/10/1 16/10/1
f 18/8/1 14/8/1 17/8/1
f 22/1/1 20/1/1 19/1/1
f 23/3/1 21/3/1 20/3/1
f 23/1/1 20/1/1 22/1/1
f 24/3/1 21/3/1 23/3/1
f 25/3/1 23/3/1 22/3/1
f 26/1/1 24/1/1 23/1/1
f 26/3/1 23/3/1 25/3/1
f 27/1/1 24/1/1 26/1/1
f 28/12/1 26/12/1 25/12/1
f 28/12/1 27/12/1 26/12/1
f 29/12/1 27/12/1 28/12/1
f 30/12/1 27/12/1 29/12/1
f 35/8/1 32/8/1 31/8/1
f 35/8/1 33/8/1 32/8/1
f 36/8/1 33/8/1 35/8/1
f 38/2/1 36/2/1 35/2/1
f 38/2/1 37/2/1 36/2/1
f 38/2/1 35/2/1 34/2/1
f 39/2/1 37/2/1 38/2/1
f 40/12/1 39/12/1 38/12/1
f 41/2/1 37/2/1 39/2/1
f 41/12/1 39/12/1 40/12/1
f 42/2/1 37/2/1 41/2/1
f 46/4/1 44/4/1 43/4/1
f 47/5/1 45/5/1 44/5/1
f 47/4/1 44/4/1 46/4/1
f 48/5/1 45/5/1 47/5/1
f 49/8/1 47/8/1 46/8/1
f 49/8/1 48/8/1 47/8/1
f 50/8/1 48/8/1 49/8/1
f 53/1/1 52/1/1 51/1/1
f 54/1/1 52/1/1 53/1/1
f 55/3/1 54/3/1 53/3/1
f 56/3/1 54/3/1 55/3/1
f 57/3/1 54/3/1 56/3/1
f 61/2/1 59/2/1 58/2/1
f 61/2/1 60/2/1 59/2/1
f 62/2/1 60/2/1 61/2/1
f 65/4/1 64/4/1 63/4/1
f 66/4/1 64/4/1 65/4/1
f 67/4/1 64/4/1 66/4/1
f 72/8/1 69/8/1 68/8/1
f 72/8/1 70/8/1 69/8/1
f 73/8/1 70/8/1 72/8/1
f 74/10/1 71/10/1 70/10/1
f 74/8/1 70/8/1 73/8/1
f 75/10/1 71/10/1 74/10/1
f 76/10/1 71/10/1 75/10/1
f 79/2/1 78/2/1 77/2/1
f 80/2/1 78/2/1 79/2/1
f 81/2/1 78/2/1 80/2/1
f 82/2/2 83/2/2 84/2/2
f 84/2/2 83/2/2 85/2/2
f 85/2/2 83/2/2 86/2/2
f 87/8/2 88/8/2 90/8/2
f 88/10/2 89/10/2 91/10/2
f 90/8/2 88/8/2 91/8/2
f 91/10/2 89/10/2 92/10/2
f 93/1/2 94/1/2 96/1/2
f 94/3/2 95/3/2 97/3/2
f 96/1/2 94/1/2 97/1/2
f 97/3/2 95/3/2 98/3/2
f 96/3/2 97/3/2 99/3/2
f 97/1/2 98/1/2 100/1/2
f 99/3/2 97/3/2 100/3/2
f 100/1/2 98/1/2 101/1/2
f 102/2/2 103/2/2 105/2/2
f 103/2/2 104/2/2 105/2/2
f 105/2/2 104/2/2 106/2/2
f 107/5/2 108/5/2 109/5/2
f 109/5/2 108/5/2 110/5/2
f 111/1/2 112/1/2 113/1/2
f 113/1/2 112/1/2 114/1/2
f 113/3/2 114/3/2 115/3/2
f 115/3/2 114/3/2 116/3/2
f 115/12/2 116/12/2 117/12/2
f 117/12/2 116/12/2 118/12/2
f 118/12/2 116/12/2 119/12/2
f 120/8/2 121/8/2 124/8/2
f 121/8/2 122/8/2 124/8/2
f 124/8/2 122/8/2 125/8/2
f 124/2/2 125/2/2 127/2/2
f 125/2/2 126/2/2 127/2/2
f 123/2/2 124/2/2 127/2/2
f 127/2/2 126/2/2 128/2/2
f 127/12/2 128/12/2 129/12/2
f 128/2/2 126/2/2 130/2/2
f 129/12/2 128/12/2 130/12/2
f 130/2/2 126/2/2 131/2/2
f 131/2/2 126/2/2 132/2/2
f 133/5/2 134/5/2 138/5/2
f 134/4/2 135/4/2 139/4/2
f 138/5/2 134/5/2 139/5/2
f 135/4/2 136/4/2 139/4/2
f 136/5/2 137/5/2 140/5/2
f 139/4/2 136/4/2 140/4/2
f 140/5/2 137/5/2 141/5/2
f 138/8/2 139/8/2 142/8/2
f 139/8/2 140/8/2 142/8/2
f 140/8/2 141/8/2 142/8/2
f 142/8/2 141/8/2 143/8/2
f 144/8/2 145/8/2 147/8/2
f 145/9/2 146/9/2 148/9/2
f 147/8/2 145/8/2 148/8/2
f 148/9/2 146/9/2 149/9/2
f 150/8/2 151/8/2 154/8/2
f 151/10/2 152/10/2 155/10/2
f 154/8/2 151/8/2 155/8/2
f 152/8/2 153/8/2 156/8/2
f 155/10/2 152/10/2 156/10/2
f 156/8/2 153/8/2 157/8/2
f 158/2/2 159/2/2 160/2/2
f 160/2/2 159/2/2 161/2/2
f 164/8/3 163/8/3 162/8/3
f 165/8/3 163/8/3 164/8/3
f 166/10/3 165/10/3 164/10/3
f 167/10/3 165/10/3 166/10/3
f 168/8/3 167/8/3 166/8/3
f 169/8/3 167/8/3 168/8/3
f 176/2/3 171/2/3 170/2/3
f 176/12/3 172/12/3 171/12/3
f 177/12/3 172/12/3 176/12/3
f 178/8/3 175/8/3 174/8/3
f 178/4/3 174/4/3 173/4/3
f 179/8/3 175/8/3 178/8/3
f 180/4/3 178/4/3 173/4/3
f 181/10/3 179/10/3 178/10/3
f 181/4/3 178/4/3 180/4/3
f 182/10/3 179/10/3 181/10/3
f 183/2/3 177/2/3 176/2/3
f 183/2/3 176/2/3 170/2/3
f 184/2/3 177/2/3 183/2/3
f 185/5/3 181/5/3 180/5/3
f 186/2/3 183/2/3 170/2/3
f 187/12/3 184/12/3 183/12/3
f 187/2/3 183/2/3 186/2/3
f 188/12/3 184/12/3 187/12/3
f 189/5/3 181/5/3 185/5/3
f 190/8/3 182/8/3 181/8/3
f 190/5/3 181/5/3 189/5/3
f 191/8/3 182/8/3 190/8/3
f 194/2/3 193/2/3 192/2/3
f 195/2/3 193/2/3 194/2/3
f 200/9/3 196/9/3 195/9/3
f 201/9/3 196/9/3 200/9/3
f 203/1/3 198/1/3 197/1/3
f 204/3/3 199/3/3 198/3/3
f 204/1/3 198/1/3 203/1/3
f 205/12/3 200/12/3 199/12/3
f 205/3/3 199/3/3 204/3/3
f 206/8/3 202/8/3 201/8/3
f 206/12/3 200/12/3 205/12/3
f 206/8/3 201/8/3 200/8/3
f 207/8/3 202/8/3 206/8/3
f 208/8/3 202/8/3 207/8/3
f 209/12/3 206/12/3 205/12/3
f 210/7/3 207/7/3 206/7/3
f 210/12/3 206/12/3 209/12/3
f 211/6/3 208/6/3 207/6/3
f 211/7/3 207/7/3 210/7/3
f 212/6/3 208/6/3 211/6/3
f 215/11/3 210/11/3 209/11/3
f 216/6/3 211/6/3 210/6/3
f 216/11/3 210/11/3 215/11/3
f 217/5/3 212/5/3 211/5/3
f 217/6/3 211/6/3 216/6/3
f 218/5/3 212/5/3 217/5/3
f 219/1/3 214/1/3 213/1/3
f 220/3/3 215/3/3 214/3/3
f 220/1/3 214/1/3 219/1/3
f 221/12/3 216/12/3 215/12/3
f 221/3/3 215/3/3 220/3/3
f 222/8/3 217/8/3 216/8/3
f 222/12/3 216/12/3 221/12/3
f 222/8/3 218/8/3 217/8/3
f 223/8/3 218/8/3 222/8/3
f 224/8/3 218/8/3 223/8/3
f 226/8/3 223/8/3 222/8/3
f 227/8/3 223/8/3 226/8/3
f 228/2/3 226/2/3 225/2/3
f 229/2/3 226/2/3 228/2/3
f 234/5/3 233/5/3 232/5/3
f 235/5/3 233/5/3 234/5/3
f 236/2/3 231/2/3 230/2/3
f 237/2/3 231/2/3 236/2/3
f 238/4/3 235/4/3 234/4/3
f 239/4/3 235/4/3 238/4/3
f 242/8/3 241/8/3 240/8/3
f 243/8/3 242/8/3 240/8/3
f 244/8/3 243/8/3 240/8/3
f 245/8/3 243/8/3 244/8/3
f 246/8/4 247/8/4 248/8/4
f 248/8/4 247/8/4 249/8/4
f 248/8/4 249/8/4 250/8/4
f 250/8/4 249/8/4 251/8/4
f 250/10/4 251/10/4 252/10/4
f 252/10/4 251/10/4 253/10/4
f 254/2/4 255/2/4 258/2/4
f 256/4/4 257/4/4 259/4/4
f 259/4/4 257/4/4 260/4/4
f 258/2/4 255/2/4 261/2/4
f 261/2/4 255/2/4 262/2/4
f 259/5/4 260/5/4 263/5/4
f 263/5/4 260/5/4 264/5/4
f 265/2/4 266/2/4 267/2/4
f 267/2/4 266/2/4 268/2/4
f 268/8/4 269/8/4 273/8/4
f 273/8/4 269/8/4 274/8/4
f 270/3/4 271/3/4 276/3/4
f 271/1/4 272/1/4 277/1/4
f 276/3/4 271/3/4 277/3/4
f 272/12/4 273/12/4 278/12/4
f 277/1/4 272/1/4 278/1/4
f 278/12/4 273/12/4 281/12/4
f 273/9/4 274/9/4 282/9/4
f 281/12/4 273/12/4 282/12/4
f 274/8/4 275/8/4 283/8/4
f 282/9/4 274/9/4 283/9/4
f 279/1/4 280/1/4 284/1/4
f 280/3/4 281/3/4 285/3/4
f 284/1/4 280/1/4 285/1/4
f 281/12/4 282/12/4 286/12/4
f 285/3/4 281/3/4 286/3/4
f 282/8/4 283/8/4 287/8/4
f 286/12/4 282/12/4 287/12/4
f 283/8/4 275/8/4 288/8/4
f 287/8/4 283/8/4 288/8/4
f 288/8/4 275/8/4 289/8/4
f 287/9/4 288/9/4 291/9/4
f 291/9/4 288/9/4 292/9/4
f 290/2/4 291/2/4 293/2/4
f 293/2/4 291/2/4 294/2/4
f 297/5/4 298/5/4 300/5/4
f 298/8/4 299/8/4 301/8/4
f 300/5/4 298/5/4 301/5/4
f 300/4/4 301/4/4 302/4/4
f 301/8/4 299/8/4 303/8/4
f 302/4/4 301/4/4 303/4/4
f 295/2/4 296/2/4 304/2/4
f 304/2/4 296/2/4 305/2/4
f 302/5/4 303/5/4 306/5/4
f 303/8/4 299/8/4 307/8/4
f 306/5/4 303/5/4 307/5/4
f 307/8/4 299/8/4 308/8/4
f 309/8/4 310/8/4 311/8/4
f 311/8/4 310/8/4 312/8/4
f 317/1/5 314/1/5 313/1/5
f 318/1/5 314/1/5 317/1/5
f 319/3/5 318/3/5 317/3/5
f 320/3/5 318/3/5 319/3/5
f 321/1/5 316/1/5 315/1/5
f 322/1/5 316/1/5 321/1/5
f 330/12/5 326/12/5 325/12/5
f 331/11/5 327/11/5 326/11/5
f 331/12/5 326/12/5 330/12/5
f 332/11/5 327/11/5 331/11/5
f 333/2/5 324/2/5 323/2/5
f 334/2/5 324/2/5 333/2/5
f 335/12/5 331/12/5 330/12/5
f 335/12/5 332/12/5 331/12/5
f 336/12/5 332/12/5 335/12/5
f 337/2/5 329/2/5 328/2/5
f 338/2/5 329/2/5 337/2/5
f 343/9/5 340/9/5 339/9/5
f 344/9/5 340/9/5 343/9/5
f 345/8/5 342/8/5 341/8/5
f 346/8/5 342/8/5 345/8/5
f 347/8/5 344/8/5 343/8/5
f 348/8/5 344/8/5 347/8/5
f 349/9/5 346/9/5 345/9/5
f 350/9/5 346/9/5 349/9/5
f 353/2/5 352/2/5 351/2/5
f 354/2/5 352/2/5 353/2/5
f 355/2/5 352/2/5 354/2/5
f 356/2/5 352/2/5 355/2/5
f 357/2/5 352/2/5 356/2/5
f 360/2/5 359/2/5 358/2/5
f 361/2/5 359/2/5 360/2/5
f 366/8/5 363/8/5 362/8/5
f 367/8/5 363/8/5 366/8/5
f 368/10/5 364/10/5 363/10/5
f 368/8/5 363/8/5 367/8/5
f 369/8/5 365/8/5 364/8/5
f 369/10/5 364/10/5 368/10/5
f 370/8/5 366/8/5 362/8/5
f 371/8/5 366/8/5 370/8/5
f 372/8/5 365/8/5 369/8/5
f 373/8/5 365/8/5 372/8/5
f 374/8/5 365/8/5 373/8/5
f 375/10/5 371/10/5 370/10/5
f 376/10/5 371/10/5 375/10/5
f 377/10/5 374/10/5 373/10/5
f 378/10/5 374/10/5 377/10/5
f 379/8/5 376/8/5 375/8/5
f 379/8/5 377/8/5 376/8/5
f 379/8/5 378/8/5 377/8/5
f 380/8/5 378/8/5 379/8/5
f 385/4/5 382/4/5 381/4/5
f 386/4/5 382/4/5 385/4/5
f 387/5/5 384/5/5 383/5/5
f 387/4/5 382/4/5 386/4/5
f 387/5/5 383/5/5 382/5/5
f 388/5/5 384/5/5 387/5/5
f 389/5/5 384/5/5 388/5/5
f 390/4/5 389/4/5 388/4/5
f 391/5/5 386/5/5 385/5/5
f 393/4/5 390/4/5 388/4/5
f 394/4/5 390/4/5 393/4/5
f 395/5/5 392/5/5 391/5/5
f 395/5/5 391/5/5 385/5/5
f 396/4/5 393/4/5 392/4/5
f 396/5/5 392/5/5 395/5/5
f 397/5/5 394/5/5 393/5/5
f 397/4/5 393/4/5 396/4/5
f 398/5/5 394/5/5 397/5/5
f 402/8/5 400/8/5 399/8/5
f 402/8/5 401/8/5 400/8/5
f 403/8/5 401/8/5 402/8/5
f 404/8/5 402/8/5 399/8/5
f 405/10/5 403/10/5 402/10/5
f 405/8/5 402/8/5 404/8/5
f 406/10/5 403/10/5 405/10/5
f 407/2/6 408/2/6 411/2/6
f 409/2/6 410/2/6 412/2/6
f 407/2/6 411/2/6 413/2/6
f 413/2/6 411/2/6 414/2/6
f 412/2/6 410/2/6 415/2/6
f 415/2/6 410/2/6 416/2/6
f 417/9/6 418/9/6 421/9/6
f 421/9/6 418/9/6 422/9/6
f 419/8/6 420/8/6 423/8/6
f 423/8/6 420/8/6 424/8/6
f 421/8/6 422/8/6 425/8/6
f 425/8/6 422/8/6 426/8/6
f 423/9/6 424/9/6 427/9/6
f 427/9/6 424/9/6 428/9/6
f 429/6/6 430/6/6 432/6/6
f 430/5/6 431/5/6 433/5/6
f 432/6/6 430/6/6 433/6/6
f 433/5/6 431/5/6 434/5/6
f 432/8/6 433/8/6 435/8/6
f 433/8/6 434/8/6 435/8/6
f 435/8/6 434/8/6 436/8/6
f 437/12/6 438/12/6 441/12/6
f 438/2/6 439/2/6 442/2/6
f 441/12/6 438/12/6 442/12/6
f 439/12/6 440/12/6 443/12/6
f 442/2/6 439/2/6 443/2/6
f 443/12/6 440/12/6 444/12/6
f 443/2/6 444/2/6 445/2/6
f 441/2/6 442/2/6 446/2/6
f 443/2/6 445/2/6 447/2/6
f 441/2/6 446/2/6 448/2/6
f 446/2/6 447/2/6 448/2/6
f 447/2/6 445/2/6 449/2/6
f 448/2/6 447/2/6 449/2/6
f 450/8/6 451/8/6 454/8/6
f 454/8/6 451/8/6 455/8/6
f 451/10/6 452/10/6 456/10/6
f 455/8/6 451/8/6 456/8/6
f 452/8/6 453/8/6 457/8/6
f 456/10/6 452/10/6 457/10/6
f 450/8/6 454/8/6 458/8/6
f 458/8/6 454/8/6 459/8/6
f 457/8/6 453/8/6 460/8/6
f 460/8/6 453/8/6 461/8/6
f 461/8/6 453/8/6 462/8/6
f 461/10/6 462/10/6 463/10/6
f 458/10/6 459/10/6 464/10/6
f 464/10/6 459/10/6 465/10/6
f 463/10/6 462/10/6 468/10/6
f 468/10/6 462/10/6 469/10/6
f 466/8/6 467/8/6 470/8/6
f 464/8/6 465/8/6 470/8/6
f 468/8/6 469/8/6 470/8/6
f 467/8/6 468/8/6 470/8/6
f 465/8/6 466/8/6 470/8/6
f 470/8/6 469/8/6 471/8/6
f 472/8/6 473/8/6 476/8/6
f 473/10/6 474/10/6 476/10/6
f 474/8/6 475/8/6 477/8/6
f 476/10/6 474/10/6 477/10/6
f 476/8/6 477/8/6 478/8/6
f 477/8/6 475/8/6 478/8/6
f 478/8/6 475/8/6 479/8/6
f 476/8/6 478/8/6 480/8/6
f 478/10/6 479/10/6 480/10/6
f 479/8/6 475/8/6 481/8/6
f 480/10/6 479/10/6 481/10/6
f 472/8/6 476/8/6 482/8/6
f 476/8/6 480/8/6 482/8/6
f 480/8/6 481/8/6 482/8/6
f 481/8/6 475/8/6 483/8/6
f 482/8/6 481/8/6 483/8/6
