# MagicaVoxel @ Ephtracy

# group
o 

# material
mtllib player2.mtl
usemtl palette

# normals
vn -1 0 0
vn 1 0 0
vn 0 0 1
vn 0 0 -1
vn 0 -1 0
vn 0 1 0

# texcoords
vt 0.0136719 0.5
vt 0.0410156 0.5
vt 0.0566406 0.5
vt 0.0644531 0.5
vt 0.0722656 0.5
vt 0.150391 0.5
vt 0.236328 0.5
vt 0.986328 0.5
vt 0.994141 0.5

# verts
v -0.4 0.2 0.1
v -0.4 0.2 -0.1
v -0.4 0.3 0.1
v -0.4 0.3 -0.1
v -0.3 0.3 0.1
v -0.3 0.3 -0.1
v -0.3 0.4 0.1
v -0.3 0.4 -0.1
v -0.3 0.7 0.3
v -0.3 0.7 0
v -0.3 0.7 -0.1
v -0.3 0.7 -0.3
v -0.3 0.8 0.3
v -0.3 0.8 0
v -0.3 0.8 -0.1
v -0.3 0.8 -0.3
v -0.2 0 0.1
v -0.2 0 -0.1
v -0.2 0.2 0.1
v -0.2 0.2 -0.1
v -0.2 0.3 0.1
v -0.2 0.3 -0.1
v -0.2 0.4 0.1
v -0.2 0.4 0
v -0.2 0.4 -0.1
v -0.2 0.5 0.2
v -0.2 0.5 0.1
v -0.2 0.5 0
v -0.2 0.5 -0.1
v -0.2 0.5 -0.2
v -0.2 0.6 0.2
v -0.2 0.6 0.1
v -0.2 0.7 0.2
v -0.2 0.7 0.1
v -0.2 0.7 0
v -0.2 0.7 -0.1
v -0.2 0.7 -0.2
v -0.2 0.8 0.2
v -0.2 0.8 0
v -0.2 0.8 -0.1
v -0.2 0.8 -0.2
v -0.2 0.9 0.2
v -0.2 0.9 0.1
v -0.2 0.9 0
v -0.2 0.9 -0.2
v -0.2 1 0.2
v -0.2 1 0.1
v -0.2 1 0
v -0.2 1 -0.2
v 0.1 0 0.1
v 0.1 0 -0.1
v 0.1 0.2 0.1
v 0.1 0.2 0
v 0.1 0.2 -0.1
v 0.1 0.5 0.1
v 0.1 0.5 0
v 0.1 0.5 -0.1
v 0.1 0.7 0.1
v 0.1 0.7 -0.1
v 0.1 0.8 0.1
v 0.1 0.8 -0.1
v 0.1 0.9 0.1
v 0.1 0.9 0
v 0.1 0.9 -0.1
v 0.2 0.7 0.2
v 0.2 0.7 0.1
v 0.2 0.7 -0.2
v 0.2 0.8 0.2
v 0.2 0.8 0.1
v 0.2 0.8 -0.2
v 0.3 0.2 0.1
v 0.3 0.2 -0.1
v 0.3 0.3 0.1
v 0.3 0.3 -0.1
v -0.3 0.2 0.1
v -0.3 0.2 -0.1
v -0.3 0.3 0.1
v -0.3 0.3 -0.1
v -0.2 0.7 0.2
v -0.2 0.7 0.1
v -0.2 0.7 0
v -0.2 0.7 -0.1
v -0.2 0.7 -0.2
v -0.2 0.8 0.2
v -0.2 0.8 0
v -0.2 0.8 -0.1
v -0.2 0.8 -0.2
v -0.1 0 0.1
v -0.1 0 -0.1
v -0.1 0.2 0.1
v -0.1 0.2 -0.1
v -0.1 0.5 0.1
v -0.1 0.5 0
v -0.1 0.5 -0.1
v -0.1 0.7 0.1
v -0.1 0.7 -0.1
v -0.1 0.8 0.1
v -0.1 0.8 -0.1
v -0.1 0.9 0.1
v -0.1 0.9 -0.1
v 0.2 0 0.1
v 0.2 0 -0.1
v 0.2 0.2 0.1
v 0.2 0.2 -0.1
v 0.2 0.3 0.1
v 0.2 0.3 -0.1
v 0.2 0.4 0.1
v 0.2 0.4 -0.1
v 0.2 0.5 0.2
v 0.2 0.5 0.1
v 0.2 0.5 -0.1
v 0.2 0.5 -0.2
v 0.2 0.6 0.2
v 0.2 0.6 0.1
v 0.2 0.7 0.2
v 0.2 0.7 0.1
v 0.2 0.7 -0.2
v 0.2 0.8 0.2
v 0.2 0.8 0.1
v 0.2 0.8 -0.2
v 0.2 0.9 0.2
v 0.2 0.9 0.1
v 0.2 0.9 -0.2
v 0.2 1 0.2
v 0.2 1 0.1
v 0.2 1 -0.2
v 0.3 0.3 0.1
v 0.3 0.3 -0.1
v 0.3 0.4 0.1
v 0.3 0.4 -0.1
v 0.3 0.7 0.3
v 0.3 0.7 0.1
v 0.3 0.7 -0.2
v 0.3 0.7 -0.3
v 0.3 0.8 0.3
v 0.3 0.8 0.1
v 0.3 0.8 -0.2
v 0.3 0.8 -0.3
v 0.4 0.2 0.1
v 0.4 0.2 -0.1
v 0.4 0.3 0.1
v 0.4 0.3 -0.1
v -0.3 0.7 0.3
v -0.3 0.8 0.3
v 0 0.7 0.3
v 0 0.8 0.3
v 0.2 0.7 0.3
v 0.2 0.8 0.3
v 0.3 0.7 0.3
v 0.3 0.8 0.3
v -0.2 0.5 0.2
v -0.2 0.6 0.2
v -0.2 0.7 0.2
v -0.2 0.8 0.2
v -0.2 0.9 0.2
v -0.2 1 0.2
v -0.1 0.6 0.2
v -0.1 0.7 0.2
v 0 0.7 0.2
v 0 0.8 0.2
v 0.1 0.6 0.2
v 0.1 0.7 0.2
v 0.2 0.5 0.2
v 0.2 0.6 0.2
v 0.2 0.7 0.2
v 0.2 0.8 0.2
v 0.2 0.9 0.2
v 0.2 1 0.2
v -0.4 0.2 0.1
v -0.4 0.3 0.1
v -0.3 0.2 0.1
v -0.3 0.3 0.1
v -0.3 0.4 0.1
v -0.2 0 0.1
v -0.2 0.2 0.1
v -0.2 0.3 0.1
v -0.2 0.4 0.1
v -0.2 0.5 0.1
v -0.1 0 0.1
v -0.1 0.2 0.1
v -0.1 0.3 0.1
v -0.1 0.4 0.1
v -0.1 0.5 0.1
v 0 0.2 0.1
v 0 0.3 0.1
v 0 0.4 0.1
v 0 0.5 0.1
v 0.1 0 0.1
v 0.1 0.2 0.1
v 0.1 0.3 0.1
v 0.1 0.5 0.1
v 0.2 0 0.1
v 0.2 0.2 0.1
v 0.2 0.3 0.1
v 0.2 0.4 0.1
v 0.2 0.5 0.1
v 0.3 0.2 0.1
v 0.3 0.3 0.1
v 0.3 0.4 0.1
v 0.4 0.2 0.1
v 0.4 0.3 0.1
v -0.1 0.5 -0.1
v -0.1 0.7 -0.1
v -0.1 0.8 -0.1
v -0.1 0.9 -0.1
v 0 0.9 -0.1
v 0.1 0.5 -0.1
v 0.1 0.7 -0.1
v 0.1 0.8 -0.1
v 0.1 0.9 -0.1
v -0.2 0.7 -0.2
v -0.2 0.8 -0.2
v 0.2 0.7 -0.2
v 0.2 0.8 -0.2
v -0.2 0.7 0.2
v -0.2 0.8 0.2
v -0.1 0.7 0.2
v 0 0.7 0.2
v 0 0.8 0.2
v 0.1 0.7 0.2
v 0.2 0.7 0.2
v 0.2 0.8 0.2
v -0.1 0.5 0.1
v -0.1 0.7 0.1
v -0.1 0.8 0.1
v -0.1 0.9 0.1
v 0 0.5 0.1
v 0.1 0.5 0.1
v 0.1 0.7 0.1
v 0.1 0.8 0.1
v 0.1 0.9 0.1
v -0.4 0.2 -0.1
v -0.4 0.3 -0.1
v -0.3 0.2 -0.1
v -0.3 0.3 -0.1
v -0.3 0.4 -0.1
v -0.2 0 -0.1
v -0.2 0.2 -0.1
v -0.2 0.3 -0.1
v -0.2 0.4 -0.1
v -0.2 0.5 -0.1
v -0.1 0 -0.1
v -0.1 0.2 -0.1
v 0.1 0 -0.1
v 0.1 0.2 -0.1
v 0.2 0 -0.1
v 0.2 0.2 -0.1
v 0.2 0.3 -0.1
v 0.2 0.4 -0.1
v 0.2 0.5 -0.1
v 0.3 0.2 -0.1
v 0.3 0.3 -0.1
v 0.3 0.4 -0.1
v 0.4 0.2 -0.1
v 0.4 0.3 -0.1
v -0.2 0.5 -0.2
v -0.2 0.7 -0.2
v -0.2 0.8 -0.2
v -0.2 0.9 -0.2
v -0.2 1 -0.2
v 0.1 0.9 -0.2
v 0.1 1 -0.2
v 0.2 0.5 -0.2
v 0.2 0.7 -0.2
v 0.2 0.8 -0.2
v 0.2 0.9 -0.2
v 0.2 1 -0.2
v -0.3 0.7 -0.3
v -0.3 0.8 -0.3
v 0.3 0.7 -0.3
v 0.3 0.8 -0.3
v -0.2 0 0.1
v -0.1 0 0.1
v 0.1 0 0.1
v 0.2 0 0.1
v -0.2 0 -0.1
v -0.1 0 -0.1
v 0.1 0 -0.1
v 0.2 0 -0.1
v -0.4 0.2 0.1
v -0.3 0.2 0.1
v -0.1 0.2 0.1
v 0 0.2 0.1
v 0.1 0.2 0.1
v 0.3 0.2 0.1
v 0.4 0.2 0.1
v 0 0.2 0
v 0.1 0.2 0
v -0.4 0.2 -0.1
v -0.3 0.2 -0.1
v -0.1 0.2 -0.1
v 0.1 0.2 -0.1
v 0.3 0.2 -0.1
v 0.4 0.2 -0.1
v -0.3 0.3 0.1
v -0.2 0.3 0.1
v 0.2 0.3 0.1
v 0.3 0.3 0.1
v -0.3 0.3 -0.1
v -0.2 0.3 -0.1
v 0.2 0.3 -0.1
v 0.3 0.3 -0.1
v -0.2 0.5 0.2
v 0.2 0.5 0.2
v -0.2 0.5 0.1
v -0.1 0.5 0.1
v 0 0.5 0.1
v 0.1 0.5 0.1
v 0.2 0.5 0.1
v -0.2 0.5 -0.1
v 0.2 0.5 -0.1
v -0.2 0.5 -0.2
v 0.2 0.5 -0.2
v -0.3 0.7 0.3
v 0 0.7 0.3
v 0.2 0.7 0.3
v 0.3 0.7 0.3
v -0.2 0.7 0.2
v -0.1 0.7 0.2
v 0 0.7 0.2
v 0.1 0.7 0.2
v 0.2 0.7 0.2
v -0.2 0.7 0.1
v 0.2 0.7 0.1
v 0.3 0.7 0.1
v -0.3 0.7 0
v -0.2 0.7 0
v -0.3 0.7 -0.1
v -0.2 0.7 -0.1
v -0.2 0.7 -0.2
v 0.2 0.7 -0.2
v 0.3 0.7 -0.2
v -0.3 0.7 -0.3
v 0.3 0.7 -0.3
v -0.2 0.8 0.2
v 0 0.8 0.2
v 0.2 0.8 0.2
v -0.1 0.8 0.1
v 0.1 0.8 0.1
v 0.2 0.8 0.1
v -0.2 0.8 0
v -0.2 0.8 -0.1
v -0.1 0.8 -0.1
v 0.1 0.8 -0.1
v -0.2 0.8 -0.2
v 0.2 0.8 -0.2
v -0.1 0.9 0.1
v 0.1 0.9 0.1
v 0 0.9 0
v 0.1 0.9 0
v -0.1 0.9 -0.1
v 0 0.9 -0.1
v 0.1 0.9 -0.1
v -0.4 0.3 0.1
v -0.3 0.3 0.1
v 0.3 0.3 0.1
v 0.4 0.3 0.1
v -0.4 0.3 -0.1
v -0.3 0.3 -0.1
v 0.3 0.3 -0.1
v 0.4 0.3 -0.1
v -0.3 0.4 0.1
v -0.2 0.4 0.1
v 0.2 0.4 0.1
v 0.3 0.4 0.1
v -0.2 0.4 0
v -0.3 0.4 -0.1
v -0.2 0.4 -0.1
v 0.2 0.4 -0.1
v 0.3 0.4 -0.1
v -0.1 0.5 0.1
v 0 0.5 0.1
v 0.1 0.5 0.1
v -0.1 0.5 0
v 0 0.5 0
v 0.1 0.5 0
v -0.1 0.5 -0.1
v 0.1 0.5 -0.1
v -0.2 0.7 0.2
v -0.1 0.7 0.2
v 0 0.7 0.2
v 0.1 0.7 0.2
v 0.2 0.7 0.2
v -0.2 0.7 0.1
v -0.1 0.7 0.1
v 0.1 0.7 0.1
v 0.2 0.7 0.1
v -0.2 0.7 0
v -0.2 0.7 -0.1
v -0.1 0.7 -0.1
v 0.1 0.7 -0.1
v -0.2 0.7 -0.2
v 0.2 0.7 -0.2
v -0.3 0.8 0.3
v 0 0.8 0.3
v 0.2 0.8 0.3
v 0.3 0.8 0.3
v -0.2 0.8 0.2
v 0 0.8 0.2
v 0.2 0.8 0.2
v 0.2 0.8 0.1
v 0.3 0.8 0.1
v -0.3 0.8 0
v -0.2 0.8 0
v -0.3 0.8 -0.1
v -0.2 0.8 -0.1
v -0.2 0.8 -0.2
v 0.2 0.8 -0.2
v 0.3 0.8 -0.2
v -0.3 0.8 -0.3
v 0.3 0.8 -0.3
v -0.2 1 0.2
v 0.2 1 0.2
v -0.2 1 0.1
v -0.1 1 0.1
v 0.1 1 0.1
v 0.2 1 0.1
v -0.2 1 0
v -0.1 1 0
v 0 1 0
v 0.1 1 0
v 0 1 -0.1
v 0.1 1 -0.1
v -0.2 1 -0.2
v 0.1 1 -0.2
v 0.2 1 -0.2

# faces
f 3/7/1 2/7/1 1/7/1
f 4/7/1 2/7/1 3/7/1
f 7/3/1 6/3/1 5/3/1
f 8/3/1 6/3/1 7/3/1
f 13/4/1 10/4/1 9/4/1
f 14/3/1 11/3/1 10/3/1
f 14/4/1 10/4/1 13/4/1
f 15/4/1 12/4/1 11/4/1
f 15/3/1 11/3/1 14/3/1
f 16/4/1 12/4/1 15/4/1
f 19/1/1 18/1/1 17/1/1
f 20/1/1 18/1/1 19/1/1
f 21/9/1 20/9/1 19/9/1
f 22/9/1 20/9/1 21/9/1
f 27/3/1 24/3/1 23/3/1
f 28/4/1 25/4/1 24/4/1
f 28/3/1 24/3/1 27/3/1
f 29/4/1 25/4/1 28/4/1
f 31/7/1 29/7/1 28/7/1
f 31/7/1 30/7/1 29/7/1
f 31/7/1 28/7/1 27/7/1
f 31/7/1 27/7/1 26/7/1
f 32/7/1 30/7/1 31/7/1
f 33/9/1 32/9/1 31/9/1
f 34/7/1 30/7/1 32/7/1
f 34/9/1 32/9/1 33/9/1
f 35/7/1 30/7/1 34/7/1
f 36/7/1 30/7/1 35/7/1
f 37/7/1 30/7/1 36/7/1
f 42/2/1 39/2/1 38/2/1
f 42/2/1 41/2/1 40/2/1
f 42/2/1 40/2/1 39/2/1
f 43/2/1 41/2/1 42/2/1
f 44/2/1 41/2/1 43/2/1
f 45/2/1 41/2/1 44/2/1
f 46/4/1 43/4/1 42/4/1
f 47/3/1 44/3/1 43/3/1
f 47/4/1 43/4/1 46/4/1
f 48/4/1 45/4/1 44/4/1
f 48/3/1 44/3/1 47/3/1
f 49/4/1 45/4/1 48/4/1
f 52/1/1 51/1/1 50/1/1
f 53/1/1 51/1/1 52/1/1
f 54/1/1 51/1/1 53/1/1
f 58/7/1 56/7/1 55/7/1
f 58/7/1 57/7/1 56/7/1
f 59/7/1 57/7/1 58/7/1
f 62/2/1 61/2/1 60/2/1
f 63/2/1 61/2/1 62/2/1
f 64/2/1 61/2/1 63/2/1
f 68/4/1 66/4/1 65/4/1
f 69/3/1 67/3/1 66/3/1
f 69/4/1 66/4/1 68/4/1
f 70/3/1 67/3/1 69/3/1
f 73/7/1 72/7/1 71/7/1
f 74/7/1 72/7/1 73/7/1
f 75/7/2 76/7/2 77/7/2
f 77/7/2 76/7/2 78/7/2
f 79/4/2 80/4/2 84/4/2
f 80/4/2 81/4/2 84/4/2
f 81/3/2 82/3/2 85/3/2
f 84/4/2 81/4/2 85/4/2
f 82/4/2 83/4/2 86/4/2
f 85/3/2 82/3/2 86/3/2
f 86/4/2 83/4/2 87/4/2
f 88/1/2 89/1/2 90/1/2
f 90/1/2 89/1/2 91/1/2
f 92/7/2 93/7/2 95/7/2
f 93/7/2 94/7/2 95/7/2
f 95/7/2 94/7/2 96/7/2
f 97/2/2 98/2/2 99/2/2
f 99/2/2 98/2/2 100/2/2
f 101/1/2 102/1/2 103/1/2
f 103/1/2 102/1/2 104/1/2
f 103/9/2 104/9/2 105/9/2
f 105/9/2 104/9/2 106/9/2
f 107/4/2 108/4/2 110/4/2
f 110/4/2 108/4/2 111/4/2
f 110/7/2 111/7/2 113/7/2
f 111/7/2 112/7/2 113/7/2
f 109/7/2 110/7/2 113/7/2
f 113/7/2 112/7/2 114/7/2
f 113/9/2 114/9/2 115/9/2
f 114/7/2 112/7/2 116/7/2
f 115/9/2 114/9/2 116/9/2
f 116/7/2 112/7/2 117/7/2
f 118/2/2 119/2/2 121/2/2
f 119/2/2 120/2/2 121/2/2
f 121/2/2 120/2/2 122/2/2
f 122/2/2 120/2/2 123/2/2
f 121/4/2 122/4/2 124/4/2
f 122/3/2 123/3/2 125/3/2
f 124/4/2 122/4/2 125/4/2
f 125/3/2 123/3/2 126/3/2
f 127/4/2 128/4/2 129/4/2
f 129/4/2 128/4/2 130/4/2
f 131/4/2 132/4/2 135/4/2
f 132/3/2 133/3/2 136/3/2
f 135/4/2 132/4/2 136/4/2
f 133/4/2 134/4/2 137/4/2
f 136/3/2 133/3/2 137/3/2
f 137/4/2 134/4/2 138/4/2
f 139/7/2 140/7/2 141/7/2
f 141/7/2 140/7/2 142/7/2
f 145/4/3 144/4/3 143/4/3
f 146/4/3 144/4/3 145/4/3
f 147/3/3 146/3/3 145/3/3
f 148/3/3 146/3/3 147/3/3
f 149/4/3 148/4/3 147/4/3
f 150/4/3 148/4/3 149/4/3
f 157/7/3 152/7/3 151/7/3
f 157/9/3 153/9/3 152/9/3
f 158/9/3 153/9/3 157/9/3
f 159/7/3 158/7/3 157/7/3
f 160/2/3 155/2/3 154/2/3
f 161/7/3 159/7/3 157/7/3
f 161/7/3 157/7/3 151/7/3
f 162/7/3 159/7/3 161/7/3
f 163/7/3 161/7/3 151/7/3
f 164/9/3 162/9/3 161/9/3
f 164/7/3 161/7/3 163/7/3
f 165/9/3 162/9/3 164/9/3
f 166/2/3 155/2/3 160/2/3
f 167/4/3 156/4/3 155/4/3
f 167/2/3 155/2/3 166/2/3
f 168/4/3 156/4/3 167/4/3
f 171/7/3 170/7/3 169/7/3
f 172/7/3 170/7/3 171/7/3
f 176/3/3 173/3/3 172/3/3
f 177/3/3 173/3/3 176/3/3
f 179/1/3 175/1/3 174/1/3
f 180/9/3 176/9/3 175/9/3
f 180/1/3 175/1/3 179/1/3
f 181/4/3 177/4/3 176/4/3
f 181/9/3 176/9/3 180/9/3
f 182/3/3 178/3/3 177/3/3
f 182/4/3 177/4/3 181/4/3
f 183/3/3 178/3/3 182/3/3
f 184/9/3 181/9/3 180/9/3
f 185/6/3 182/6/3 181/6/3
f 185/9/3 181/9/3 184/9/3
f 186/5/3 183/5/3 182/5/3
f 186/6/3 182/6/3 185/6/3
f 187/5/3 183/5/3 186/5/3
f 189/8/3 185/8/3 184/8/3
f 190/2/3 186/2/3 185/2/3
f 190/2/3 187/2/3 186/2/3
f 190/8/3 185/8/3 189/8/3
f 191/2/3 187/2/3 190/2/3
f 192/1/3 189/1/3 188/1/3
f 193/9/3 190/9/3 189/9/3
f 193/1/3 189/1/3 192/1/3
f 194/4/3 191/4/3 190/4/3
f 194/9/3 190/9/3 193/9/3
f 195/4/3 191/4/3 194/4/3
f 196/4/3 191/4/3 195/4/3
f 198/4/3 195/4/3 194/4/3
f 199/4/3 195/4/3 198/4/3
f 200/7/3 198/7/3 197/7/3
f 201/7/3 198/7/3 200/7/3
f 206/2/3 205/2/3 204/2/3
f 207/7/3 203/7/3 202/7/3
f 208/7/3 203/7/3 207/7/3
f 209/2/3 206/2/3 204/2/3
f 210/2/3 206/2/3 209/2/3
f 213/4/3 212/4/3 211/4/3
f 214/4/3 212/4/3 213/4/3
f 215/4/4 216/4/4 217/4/4
f 217/4/4 216/4/4 218/4/4
f 218/4/4 216/4/4 219/4/4
f 218/3/4 219/3/4 220/3/4
f 220/3/4 219/3/4 221/3/4
f 221/3/4 219/3/4 222/3/4
f 223/7/4 224/7/4 227/7/4
f 227/7/4 224/7/4 228/7/4
f 228/7/4 224/7/4 229/7/4
f 225/2/4 226/2/4 230/2/4
f 230/2/4 226/2/4 231/2/4
f 232/7/4 233/7/4 234/7/4
f 234/7/4 233/7/4 235/7/4
f 235/3/4 236/3/4 239/3/4
f 239/3/4 236/3/4 240/3/4
f 237/1/4 238/1/4 242/1/4
f 238/9/4 239/9/4 243/9/4
f 242/1/4 238/1/4 243/1/4
f 243/9/4 239/9/4 245/9/4
f 244/1/4 245/1/4 246/1/4
f 245/9/4 239/9/4 247/9/4
f 246/1/4 245/1/4 247/1/4
f 240/4/4 241/4/4 248/4/4
f 247/9/4 239/9/4 248/9/4
f 239/4/4 240/4/4 248/4/4
f 248/4/4 241/4/4 249/4/4
f 249/4/4 241/4/4 250/4/4
f 248/4/4 249/4/4 252/4/4
f 252/4/4 249/4/4 253/4/4
f 251/7/4 252/7/4 254/7/4
f 254/7/4 252/7/4 255/7/4
f 258/2/4 259/2/4 261/2/4
f 259/4/4 260/4/4 261/4/4
f 261/4/4 260/4/4 262/4/4
f 256/7/4 257/7/4 263/7/4
f 263/7/4 257/7/4 264/7/4
f 258/2/4 261/2/4 265/2/4
f 261/3/4 262/3/4 266/3/4
f 265/2/4 261/2/4 266/2/4
f 266/3/4 262/3/4 267/3/4
f 268/4/4 269/4/4 270/4/4
f 270/4/4 269/4/4 271/4/4
f 276/1/5 273/1/5 272/1/5
f 277/1/5 273/1/5 276/1/5
f 278/1/5 275/1/5 274/1/5
f 279/1/5 275/1/5 278/1/5
f 287/9/5 283/9/5 282/9/5
f 287/8/5 284/8/5 283/8/5
f 288/8/5 284/8/5 287/8/5
f 289/7/5 281/7/5 280/7/5
f 290/7/5 281/7/5 289/7/5
f 291/9/5 287/9/5 282/9/5
f 291/9/5 288/9/5 287/9/5
f 292/9/5 288/9/5 291/9/5
f 293/7/5 286/7/5 285/7/5
f 294/7/5 286/7/5 293/7/5
f 299/3/5 296/3/5 295/3/5
f 300/3/5 296/3/5 299/3/5
f 301/4/5 298/4/5 297/4/5
f 302/4/5 298/4/5 301/4/5
f 305/7/5 304/7/5 303/7/5
f 306/7/5 304/7/5 305/7/5
f 307/7/5 304/7/5 306/7/5
f 308/7/5 304/7/5 307/7/5
f 309/7/5 304/7/5 308/7/5
f 312/7/5 311/7/5 310/7/5
f 313/7/5 311/7/5 312/7/5
f 318/4/5 315/4/5 314/4/5
f 319/4/5 315/4/5 318/4/5
f 320/3/5 316/3/5 315/3/5
f 320/4/5 315/4/5 319/4/5
f 321/3/5 316/3/5 320/3/5
f 322/4/5 317/4/5 316/4/5
f 322/3/5 316/3/5 321/3/5
f 323/4/5 318/4/5 314/4/5
f 324/4/5 317/4/5 322/4/5
f 325/4/5 317/4/5 324/4/5
f 326/4/5 323/4/5 314/4/5
f 327/4/5 323/4/5 326/4/5
f 328/3/5 327/3/5 326/3/5
f 329/3/5 327/3/5 328/3/5
f 330/4/5 329/4/5 328/4/5
f 331/3/5 325/3/5 324/3/5
f 332/3/5 325/3/5 331/3/5
f 333/4/5 330/4/5 328/4/5
f 333/4/5 331/4/5 330/4/5
f 333/4/5 332/4/5 331/4/5
f 334/4/5 332/4/5 333/4/5
f 338/2/5 336/2/5 335/2/5
f 338/2/5 337/2/5 336/2/5
f 339/2/5 337/2/5 338/2/5
f 340/2/5 337/2/5 339/2/5
f 341/2/5 338/2/5 335/2/5
f 342/2/5 338/2/5 341/2/5
f 343/2/5 338/2/5 342/2/5
f 344/2/5 340/2/5 339/2/5
f 345/2/5 343/2/5 342/2/5
f 345/2/5 344/2/5 343/2/5
f 346/2/5 340/2/5 344/2/5
f 346/2/5 344/2/5 345/2/5
f 349/4/5 348/4/5 347/4/5
f 350/4/5 348/4/5 349/4/5
f 351/4/5 349/4/5 347/4/5
f 352/3/5 350/3/5 349/3/5
f 352/4/5 349/4/5 351/4/5
f 353/3/5 350/3/5 352/3/5
f 354/7/6 355/7/6 358/7/6
f 358/7/6 355/7/6 359/7/6
f 356/7/6 357/7/6 360/7/6
f 360/7/6 357/7/6 361/7/6
f 362/3/6 363/3/6 366/3/6
f 362/3/6 366/3/6 367/3/6
f 367/3/6 366/3/6 368/3/6
f 364/4/6 365/4/6 369/4/6
f 369/4/6 365/4/6 370/4/6
f 371/5/6 372/5/6 374/5/6
f 372/2/6 373/2/6 375/2/6
f 374/5/6 372/5/6 375/5/6
f 375/2/6 373/2/6 376/2/6
f 374/4/6 375/4/6 377/4/6
f 375/4/6 376/4/6 377/4/6
f 377/4/6 376/4/6 378/4/6
f 379/9/6 380/9/6 384/9/6
f 380/7/6 381/7/6 385/7/6
f 384/9/6 380/9/6 385/9/6
f 381/7/6 382/7/6 385/7/6
f 382/9/6 383/9/6 386/9/6
f 385/7/6 382/7/6 386/7/6
f 386/9/6 383/9/6 387/9/6
f 384/7/6 385/7/6 388/7/6
f 388/7/6 385/7/6 389/7/6
f 389/7/6 385/7/6 390/7/6
f 386/7/6 387/7/6 391/7/6
f 389/7/6 390/7/6 392/7/6
f 390/7/6 391/7/6 392/7/6
f 391/7/6 387/7/6 393/7/6
f 392/7/6 391/7/6 393/7/6
f 394/4/6 395/4/6 398/4/6
f 395/3/6 396/3/6 399/3/6
f 398/4/6 395/4/6 399/4/6
f 396/4/6 397/4/6 400/4/6
f 399/3/6 396/3/6 400/3/6
f 400/4/6 397/4/6 401/4/6
f 401/4/6 397/4/6 402/4/6
f 394/4/6 398/4/6 403/4/6
f 403/4/6 398/4/6 404/4/6
f 403/3/6 404/3/6 405/3/6
f 405/3/6 404/3/6 406/3/6
f 405/4/6 406/4/6 407/4/6
f 401/3/6 402/3/6 408/3/6
f 408/3/6 402/3/6 409/3/6
f 405/4/6 407/4/6 410/4/6
f 407/4/6 408/4/6 410/4/6
f 408/4/6 409/4/6 410/4/6
f 410/4/6 409/4/6 411/4/6
f 412/4/6 413/4/6 414/4/6
f 414/4/6 413/4/6 415/4/6
f 415/4/6 413/4/6 416/4/6
f 416/4/6 413/4/6 417/4/6
f 414/3/6 415/3/6 418/3/6
f 415/4/6 416/4/6 419/4/6
f 418/3/6 415/3/6 419/3/6
f 419/4/6 416/4/6 420/4/6
f 416/3/6 417/3/6 421/3/6
f 420/4/6 416/4/6 421/4/6
f 419/4/6 420/4/6 422/4/6
f 418/4/6 419/4/6 422/4/6
f 420/3/6 421/3/6 422/3/6
f 421/3/6 417/3/6 423/3/6
f 422/3/6 421/3/6 423/3/6
f 418/4/6 422/4/6 424/4/6
f 422/4/6 423/4/6 424/4/6
f 423/3/6 417/3/6 425/3/6
f 424/4/6 423/4/6 425/4/6
f 425/3/6 417/3/6 426/3/6
